<svg width="342" height="104" viewBox="0 0 342 104" fill="none" xmlns="http://www.w3.org/2000/svg">
<g clip-path="url(#clip0_1_8327)">
<path d="M258.619 100.34H248.869V103.27H258.619V100.34Z" fill="#CDA050"/>
<path d="M325.969 78.8V81.73H315.639C315.269 81.73 314.919 81.89 314.609 82.2C314.379 82.43 314.269 82.77 314.269 83.21V83.27C314.269 83.67 314.379 84 314.609 84.25C314.939 84.52 315.289 84.66 315.639 84.66H321.669C321.919 84.66 322.149 84.69 322.369 84.75C322.589 84.81 322.799 84.86 323.009 84.91C323.319 85.02 323.609 85.15 323.869 85.33C324.129 85.51 324.399 85.72 324.669 85.97C325.149 86.45 325.479 87 325.669 87.62C325.769 87.85 325.839 88.07 325.869 88.28C325.899 88.49 325.939 88.73 325.979 89V95.01C325.939 95.24 325.899 95.47 325.869 95.71C325.839 95.95 325.769 96.17 325.669 96.38C325.459 97.05 325.129 97.6 324.669 98.03C324.399 98.28 324.129 98.49 323.869 98.67C323.609 98.85 323.329 98.99 323.009 99.09C322.639 99.24 322.189 99.31 321.669 99.31H248.869V96.38H321.609C321.959 96.38 322.299 96.24 322.609 95.97C322.729 95.8 322.819 95.64 322.869 95.47C322.919 95.3 322.969 95.13 323.009 94.94V89.05C322.969 88.84 322.919 88.66 322.869 88.5C322.819 88.34 322.729 88.19 322.609 88.05C322.319 87.76 321.979 87.61 321.609 87.61H315.559C315.349 87.61 315.129 87.6 314.889 87.56C314.649 87.53 314.449 87.47 314.279 87.39C313.969 87.26 313.679 87.12 313.409 86.95C313.139 86.78 312.879 86.58 312.629 86.32C312.339 86.07 312.119 85.81 311.959 85.53C311.799 85.25 311.669 84.95 311.569 84.64C311.399 84.2 311.319 83.75 311.319 83.29V83.13C311.319 82.86 311.339 82.61 311.379 82.39C311.419 82.17 311.479 81.94 311.569 81.71C311.759 81.06 312.109 80.51 312.629 80.06C312.879 79.83 313.139 79.63 313.409 79.45C313.679 79.27 313.969 79.13 314.279 79.03C314.449 78.99 314.649 78.94 314.889 78.87C315.129 78.81 315.349 78.78 315.559 78.78H325.989L325.969 78.8Z" fill="#CDA050"/>
<path d="M280.949 80.49C280.739 80.68 280.549 80.87 280.389 81.07C280.219 81.27 280.089 81.48 279.979 81.71C279.479 82.52 279.229 83.44 279.229 84.46V93.44H282.129V84.58C282.129 83.85 282.399 83.19 282.939 82.58C283.559 82 284.239 81.71 284.969 81.71H288.149C288.499 81.75 288.839 81.83 289.159 81.96C289.479 82.08 289.769 82.29 290.019 82.58C290.289 82.87 290.499 83.18 290.639 83.5C290.789 83.82 290.869 84.18 290.889 84.58V84.61H293.819V84.45C293.799 83.97 293.729 83.5 293.619 83.03C293.509 82.56 293.319 82.12 293.069 81.7C292.919 81.47 292.779 81.26 292.629 81.06C292.479 80.86 292.309 80.67 292.099 80.48C291.929 80.29 291.749 80.13 291.539 79.98C291.329 79.83 291.109 79.69 290.879 79.54C290.049 79.1 289.169 78.84 288.259 78.76H284.859C284.339 78.8 283.859 78.88 283.409 79.01C282.959 79.13 282.529 79.31 282.109 79.54C281.629 79.83 281.239 80.14 280.919 80.48" fill="#CDA050"/>
<path d="M304.25 81.71C305.04 81.77 305.71 82.06 306.25 82.58C306.54 82.87 306.75 83.18 306.87 83.5C306.99 83.82 307.08 84.18 307.12 84.58V84.64H298.32V84.58C298.32 83.81 298.6 83.14 299.16 82.58C299.7 82.06 300.37 81.77 301.16 81.71H304.25ZM301.04 78.78C300.54 78.82 300.07 78.9 299.62 79.01C299.17 79.12 298.74 79.31 298.32 79.56C298.09 79.71 297.88 79.85 297.7 79.98C297.51 80.12 297.32 80.29 297.11 80.5C296.92 80.69 296.76 80.88 296.61 81.08C296.46 81.28 296.32 81.47 296.17 81.66V81.72C295.65 82.57 295.39 83.5 295.39 84.5V87.81C295.39 88.31 295.46 88.78 295.59 89.23C295.73 89.68 295.92 90.11 296.17 90.53C296.27 90.76 296.41 90.97 296.58 91.17C296.75 91.37 296.92 91.56 297.11 91.75C297.32 91.94 297.52 92.11 297.7 92.28C297.89 92.45 298.1 92.58 298.32 92.69C298.74 92.94 299.17 93.13 299.62 93.27C300.07 93.41 300.54 93.47 301.04 93.47H310.06V90.54H301.16C300.39 90.54 299.72 90.26 299.16 89.7C298.6 89.18 298.32 88.51 298.32 87.7V87.61H307.18C307.95 87.61 308.62 87.33 309.18 86.77C309.72 86.25 310.01 85.58 310.05 84.77V84.52C310.03 84.02 309.96 83.54 309.83 83.07C309.71 82.6 309.52 82.16 309.27 81.74C309.15 81.51 309 81.3 308.83 81.1C308.66 80.9 308.5 80.71 308.33 80.52C308.14 80.31 307.94 80.14 307.74 80C307.53 79.86 307.32 79.72 307.12 79.58C306.7 79.33 306.26 79.15 305.79 79.03C305.32 78.92 304.85 78.84 304.37 78.8H301.03L301.04 78.78Z" fill="#CDA050"/>
<path d="M275.569 78.77L271.759 85.61L268.009 78.77H264.489L270.359 88.22V93.46H273.289V88.22L279.159 78.77H275.569Z" fill="#CDA050"/>
<path d="M248.85 78.77V81.7H254.75V93.44H257.68V81.7H263.52V78.77H257.68V70H254.75V78.77H248.85Z" fill="#CDA050"/>
<path d="M319.7 30.94L325.31 59.88H313.26L311.2 39.5L297.69 59.88H284.86L306.7 30.47L301.41 0.409973H312.98L315.22 21.92L329.97 0.409973H341.92L319.7 30.94Z" fill="#CDA050"/>
<path d="M166.4 59.88C162.47 59.88 159.85 57.9 158.82 54.22C157.02 48.12 160.01 40.26 163.95 35.5C166.74 32.13 170.05 30.26 173.87 30.26H186.22L184.13 37.77H181.55C180.25 37.71 179.32 37.68 178.84 37.68C176.31 37.68 174.8 38.13 174.02 38.75C171.51 40.68 170.07 46.84 170.2 49.95C170.22 50.41 170.26 52.38 171.2 52.38H183.08L190.55 25.56C191.22 23.15 191.31 21.71 191.12 21.01C190.89 20.38 190.24 19.77 188.15 19.77H174.55L176.64 12.26H193.24C198 12.26 201.71 13.44 203.02 16.67C203.95 18.93 203.52 22.56 202.24 27.14L193.13 59.89H166.39L166.4 59.88Z" fill="#CDA050"/>
<path d="M220.661 19.76L213.311 46.16C212.271 49.88 212.581 51.34 212.871 51.66C213.431 52.31 217.671 52.38 218.351 52.38H220.241L218.151 59.89H210.401C199.671 59.89 198.241 56.4 200.861 46.99L213.811 0.409973H226.031L222.741 12.24H234.631L232.541 19.75H220.651L220.661 19.76Z" fill="#CDA050"/>
<path d="M254.011 19.07C250.351 19.02 248.241 19.78 247.171 20.92C246.481 21.66 245.511 23.85 244.361 27.98L235.481 59.88H223.261L232.651 26.14C235.351 16.42 242.531 11.56 253.671 11.56H261.831L259.741 19.07H254.011Z" fill="#CDA050"/>
<path d="M255.44 59.88C251.51 59.88 248.89 57.9 247.86 54.22C246.06 48.12 249.05 40.26 252.99 35.5C255.78 32.13 259.09 30.26 262.91 30.26H275.26L273.17 37.77H270.59C269.29 37.71 268.36 37.68 267.88 37.68C265.35 37.68 263.85 38.13 263.06 38.75C260.55 40.68 259.11 46.84 259.24 49.95C259.26 50.41 259.3 52.38 260.24 52.38H272.12L279.58 25.56C280.25 23.15 280.34 21.71 280.15 21.01C279.92 20.38 279.27 19.77 277.18 19.77H263.59L265.68 12.26H282.28C287.04 12.26 290.75 13.44 292.06 16.67C292.99 18.93 292.56 22.56 291.28 27.14L282.17 59.89H255.43L255.44 59.88Z" fill="#CDA050"/>
<path d="M141.301 59.88L149.921 28.9L132.531 59.88H122.211L122.071 28.48L113.341 59.88H103.141L119.691 0.409973H132.671L132.631 40.12L154.681 0.409973H167.851L151.311 59.88H141.301Z" fill="#CDA050"/>
<path d="M91.7702 45.78C86.7502 48.1 80.9902 49.18 76.5402 52.36C67.8002 58.54 68.3802 65.78 62.6902 68.63C62.6902 68.63 49.4102 75.79 37.5002 76.27C35.9802 76.44 35.0502 76.39 34.6102 77.78C34.6102 77.78 33.0902 79.48 46.7002 80.19C43.9502 81.75 45.1402 83.24 46.3802 83.8C49.4202 85.13 54.2702 84.78 58.8902 82.4C61.6302 80.99 64.2002 79.02 66.0102 76.11C62.9202 77.48 59.7202 78.87 56.7102 78.13C55.5102 77.83 55.7502 75.58 58.9002 74.8C63.5502 73.65 68.4702 73.13 72.6902 70.61C77.0002 68.02 79.5002 64.32 79.4302 62.36C77.6002 64.68 75.2702 65.73 74.5002 64.54C73.3102 62.75 74.4302 57.3 77.8102 54.33C81.9102 50.71 82.7002 53.78 81.3402 57.04C83.2902 55.38 84.2802 51.85 86.7502 50.39C91.7102 47.48 96.7802 44.72 100.19 39.68C100.31 39.66 100.53 40.08 100.43 40.56C101.03 39.65 101.75 37.1 101.75 36.32C99.4802 40.37 96.0602 43.79 91.8002 45.77" fill="#CDA050"/>
<path d="M23.24 43.91C23.62 43.39 23.62 42.91 23.53 42.38C23.15 40.26 22.79 38.14 22.35 36.03C21.86 33.71 21.28 31.4 21.57 29.01C21.68 28.11 21.9 27.16 22.32 26.37C22.86 25.35 23.65 24.45 24.36 23.48C24.2 23.58 24.04 23.65 23.92 23.75C21.15 25.98 18.38 28.21 15.63 30.47C15.05 30.95 14.34 31.45 14.08 32.1C13.4 33.77 12.92 35.53 12.39 37.26C11.82 39.13 12.17 41.08 12 42.98C12 43.07 12.04 43.16 12.05 43.2C12.49 42.71 12.92 42.23 13.35 41.75C13.41 41.78 13.47 41.8 13.54 41.83C13.54 42.33 13.52 42.83 13.54 43.32C13.72 47.13 14.26 50.89 15.12 54.61C15.88 57.91 16.93 61.1 18.85 63.93C19.15 64.37 19.45 64.81 19.76 65.25C19.8 65.23 19.84 65.2 19.88 65.18C19.78 64.43 19.65 63.69 19.59 62.94C19.54 62.29 19.59 61.63 19.56 60.98C19.43 57.76 19.47 54.54 20.08 51.37C20.6 48.68 21.62 46.16 23.24 43.92" fill="#CDA050"/>
<path d="M19.1396 69.34C19.1396 69.06 18.9796 68.78 18.8796 68.5C18.3296 67.03 17.8196 65.54 17.1996 64.11C16.9196 63.47 16.3596 62.95 16.0396 62.32C14.3696 59.03 13.1996 55.53 11.8996 52.09C11.7296 51.64 11.4996 51.21 11.2996 50.76C11.2396 50.77 11.1796 50.79 11.1196 50.8C10.7796 52.3 10.5496 53.83 10.0796 55.29C9.11962 58.29 9.29962 61.27 10.1396 64.21C10.5596 65.7 11.2896 67.09 11.8296 68.55C11.9496 68.89 11.8696 69.3 11.8896 69.69C11.5196 69.66 11.1396 69.65 10.7696 69.6C10.6596 69.58 10.5596 69.47 10.4596 69.39C10.2296 69.2 9.99962 69 9.76962 68.8C9.71962 68.83 9.66962 68.86 9.62962 68.89C9.65962 69.07 9.64962 69.27 9.71962 69.43C10.1396 70.46 10.5396 71.51 11.0096 72.52C12.1396 74.94 13.8096 77.07 14.7096 79.62C14.9496 80.31 15.1196 80.32 15.7896 79.95C17.2796 79.12 18.2796 77.83 19.0596 76.36C19.1496 76.19 19.0596 75.71 18.9596 75.67C18.1396 75.38 18.0496 74.72 18.0496 74.03C18.0496 72.78 18.3596 71.62 18.9696 70.52C19.1496 70.19 19.1496 69.73 19.1396 69.34Z" fill="#CDA050"/>
<path d="M34.3601 23C34.2001 22.49 34.1501 21.94 33.9401 21.46C33.7201 20.96 33.4701 20.38 33.0701 20.09C32.2701 19.51 31.3401 19.11 30.4801 18.63C30.1001 18.41 29.7401 18.13 29.3401 17.94C28.9301 17.75 28.4501 18.01 28.4601 18.38C28.4901 19.09 28.5301 19.8 28.6101 20.51C28.7301 21.62 28.8701 22.73 29.0501 23.83C29.2201 24.84 29.5201 25.77 30.5401 26.2C31.0601 26.42 31.5501 26.7 32.0301 26.99C32.2601 27.13 32.4801 27.34 32.6201 27.58C33.2801 28.65 33.7001 29.81 33.9701 31.06C34.0401 31.4 34.3101 31.89 34.5701 31.96C35.2401 32.14 35.9601 32.13 36.6601 32.16C36.8301 32.16 37.0101 32.03 37.2001 31.96C36.8901 30.94 36.6301 29.98 36.3201 29.03C35.6701 27.02 35.0101 25.02 34.3601 23.01" fill="#CDA050"/>
<path d="M47.3502 32.67C47.6202 32.63 47.9402 32.18 48.0502 31.85C48.4502 30.64 49.0102 29.53 49.7802 28.54C49.9502 28.32 50.1902 28.14 50.4302 28.02C50.9402 27.78 51.4602 27.56 52.0002 27.4C53.0702 27.08 53.4702 26.19 53.7502 25.21C54.0502 24.14 54.3102 23.05 54.5602 21.96C54.7202 21.27 54.8302 20.56 54.9402 19.86C55.0002 19.49 54.5502 19.18 54.1202 19.32C53.7002 19.46 53.3202 19.7 52.9102 19.88C51.9902 20.27 51.0302 20.56 50.1702 21.04C49.7402 21.28 49.4202 21.83 49.1502 22.31C48.8902 22.76 48.7802 23.31 48.5602 23.8C47.7002 25.73 46.8102 27.64 45.9402 29.56C45.5302 30.47 45.1602 31.39 44.7402 32.37C44.9202 32.47 45.0802 32.62 45.2502 32.63C45.9502 32.68 46.6602 32.77 47.3402 32.67" fill="#CDA050"/>
<path d="M29.13 15.33C29.13 15.33 28.7 15.79 29.37 16.28C30.04 16.76 34.11 19.59 34.11 19.59C34.11 19.59 34.58 19.9 34.95 21.1C35.32 22.3 37.58 30.21 37.58 30.21L37.61 30.3C37.86 31.66 39.23 32.75 40.95 32.85C42.66 32.95 44.14 32 44.54 30.68L44.57 30.6C44.57 30.6 47.7 22.99 48.2 21.84C48.7 20.69 49.21 20.44 49.21 20.44C49.21 20.44 53.57 18.09 54.28 17.68C55 17.27 54.62 16.77 54.62 16.77L51.53 11.48L54.75 7.72L48.97 5.55C48.97 5.55 46.6 4.77 43.26 8.35C42.72 9.29 42.22 10.73 42.17 10.86C42.14 10.73 41.8 9.24 41.37 8.24C38.45 4.31 36.01 4.82 36.01 4.82L30.02 6.34L32.8 10.43L29.14 15.35L29.13 15.33Z" fill="#CDA050"/>
<path d="M41.7803 33.92C41.5003 34.06 41.2403 34.12 40.9903 34.1C40.7303 34.1 40.4803 34.01 40.2203 33.83C39.3403 33.24 38.3703 33.08 37.3403 33.1C35.7803 33.13 34.2103 33.14 32.5303 33.16C32.8503 33.61 33.0103 34.08 33.6803 34.03C34.0003 33.98 34.3303 33.96 34.6803 33.98C36.3503 34.07 37.6603 35.03 37.6003 36.12C37.5603 36.84 36.9303 37.43 36.0303 37.73H36.0503C35.5803 37.87 35.2303 38.28 35.2003 38.77C35.1703 39.38 35.6303 39.91 36.2703 40.02H36.2903C37.6003 40.22 39.0703 40.38 40.6303 40.47H40.6503C42.2103 40.56 43.6903 40.57 45.0203 40.51H45.0403C45.6803 40.48 46.2103 40.01 46.2403 39.39C46.2703 38.9 45.9703 38.45 45.5203 38.25H45.5403C44.6803 37.87 44.1203 37.21 44.1603 36.49C44.2203 35.4 45.6303 34.59 47.3003 34.69C47.6503 34.71 47.9803 34.77 48.2903 34.85C48.9503 34.97 49.1603 34.52 49.5303 34.11C47.8603 33.9 46.3103 33.72 44.7603 33.52C43.7403 33.39 42.7503 33.44 41.8203 33.93" fill="#CDA050"/>
<path d="M54.1404 12.19C54.3404 14.18 56.1004 15.69 58.2304 15.69C58.3804 15.69 58.5304 15.69 58.6704 15.67C59.4504 15.59 60.2004 15.31 60.8204 14.86L60.8804 14.81C61.9204 14.01 63.2204 13.62 64.8504 13.62C66.6704 13.62 68.7204 14.1 70.7004 14.57C72.6904 15.04 74.7504 15.53 76.6404 15.55H76.7304C79.0404 15.55 83.1304 14.59 84.6004 8.19L85.3804 4.8L83.7004 7.85C82.2404 10.5 80.2904 11.91 78.0704 11.91C77.8304 11.91 77.5804 11.89 77.3304 11.86C75.4904 11.6 73.4604 10.7 71.3004 9.74C68.2404 8.38 65.0704 6.97 61.7104 6.97C59.6404 6.97 57.7604 7.5 55.9804 8.59L55.8804 8.65C54.6704 9.47 54.0004 10.84 54.1404 12.22" fill="#CDA050"/>
<path d="M8.92 11.73C10.4 11.73 11.98 11.54 13.5 11.36C15 11.18 16.55 10.99 17.97 10.99C20.36 10.99 22.03 11.53 23.23 12.69L23.29 12.75C23.86 13.27 24.57 13.63 25.34 13.8C25.65 13.87 25.96 13.9 26.27 13.9C28.22 13.9 29.85 12.65 30.23 10.85C30.52 9.49 30.01 8.06 28.9 7.11L28.82 7.06C26.78 5.49 24.51 4.72 21.87 4.72C18.99 4.72 16.17 5.61 13.44 6.48C11.19 7.19 9.07 7.86 7.21 7.92C4.7 7.99 2.6 6.32 1.32 3.23L0 0L0.4 3.46C1.15 10.05 5.17 11.43 7.49 11.67C7.93 11.71 8.41 11.74 8.92 11.74" fill="#CDA050"/>
<path d="M22.1403 20.11C22.5003 20.09 23.0803 20 23.4403 19.99C24.7003 19.58 24.4703 19.65 25.7303 19.24L27.7303 15.06C27.0403 15.37 25.4303 15.42 24.5303 15.36C22.9703 15.27 21.1203 14.81 19.6203 15.04C17.4103 15.38 17.6203 16.31 14.0903 17.06C13.2603 17.36 13.1203 17.9 14.1603 18.04C16.8303 18.83 19.3703 20.14 22.1403 20.11Z" fill="#CDA050"/>
<path d="M69.5699 21.15C70.6199 21.12 70.5299 20.57 69.7399 20.18C66.3099 19.03 66.6299 18.13 64.4699 17.55C63.0099 17.16 61.1099 17.41 59.5599 17.32C58.6599 17.27 57.0699 17.05 56.4199 16.66L57.9399 21.03C59.1499 21.58 58.9299 21.48 60.1299 22.04C60.4799 22.1 61.0499 22.25 61.3999 22.31C64.1499 22.66 66.8199 21.64 69.5599 21.15" fill="#CDA050"/>
<path d="M74.4298 32.85C73.7298 34.21 72.8098 35.36 71.5498 36.21C71.1198 36.5 70.6098 36.66 70.1598 36.88C69.3598 35.97 69.3798 35.21 70.1598 34.15C71.4798 32.34 73.2598 31.09 75.1898 30.04C75.5698 29.83 75.9698 29.65 76.5298 29.37C75.7598 30.63 75.0298 31.71 74.4298 32.86M108.05 19.36C106.16 19.68 104.38 20.32 102.66 21.16C101.72 21.62 100.74 22.08 99.9498 22.74C98.8898 23.62 97.9898 24.69 97.0298 25.69C95.8198 26.95 94.7398 28.37 93.3898 29.45C90.9598 31.4 88.1498 32.74 85.1198 33.5C83.8198 33.83 82.4498 33.87 81.1098 33.97C80.6298 34.01 80.0498 33.86 79.9998 33.26C79.8598 31.65 80.3398 30.15 81.5998 29.19C83.9998 27.37 86.7698 26.37 89.8198 26.29C90.3998 26.27 90.8898 26.15 91.3098 25.75C92.2498 24.85 93.2098 23.97 94.1598 23.07C94.2498 22.99 94.2798 22.85 94.4098 22.62C91.3498 24.03 88.3698 25.06 85.0798 23.76C85.2098 23.5 85.3398 23.26 85.4698 23.01C85.4398 22.96 85.4098 22.91 85.3898 22.86C84.6198 23.16 83.8498 23.47 83.0698 23.74C81.7298 24.2 80.7498 25.27 79.3598 25.72C78.0998 26.12 76.9698 26.94 75.7898 27.57C73.8298 28.61 71.7498 29.2 69.5198 29.04C68.6698 28.98 67.8198 28.76 66.9998 28.51C66.4598 28.35 66.4298 27.95 66.8498 27.55C66.9698 27.44 67.1198 27.35 67.2598 27.26C68.7298 26.37 70.4198 26.11 72.0498 25.73C73.5998 25.37 75.1398 25.02 76.4398 24.04C77.1598 23.5 77.6898 22.84 77.8298 21.88C77.7198 21.9 77.6798 21.9 77.6398 21.92C77.5698 21.96 77.4998 22.01 77.4398 22.07C76.1898 23.21 74.7198 23.96 73.0298 24.05C71.4298 24.14 69.8198 24.11 68.2098 24.03C67.5098 23.99 66.7798 23.79 66.1498 23.48C65.5398 23.18 65.0098 23.24 64.4598 23.48C62.8598 24.18 61.4198 25.1 60.3698 26.55C60.0698 26.96 60.0198 27.24 60.5098 27.51C62.6098 28.66 64.1698 30.42 65.5198 32.32C67.9498 35.74 70.2098 39.29 71.7998 43.21C71.8198 43.26 71.8898 43.28 71.9798 43.34C72.0598 43.24 72.1398 43.15 72.2098 43.06C72.2598 42.99 72.3298 42.93 72.3498 42.85C72.7498 41.54 73.8498 40.97 74.9498 40.43C77.3898 39.24 80.0298 38.74 82.7098 38.45C85.9898 38.1 88.9898 37.02 91.7498 35.25C92.5998 34.7 93.4198 34.1 94.3698 33.45C94.2698 33.62 94.2398 33.7 94.1898 33.74C92.8198 34.98 91.5398 36.33 90.0698 37.43C88.3198 38.74 86.4198 39.85 84.5998 41.06C84.4298 41.17 84.2998 41.33 84.1498 41.47C84.1898 41.55 84.2298 41.64 84.2698 41.72C85.1998 41.5 86.1598 41.35 87.0698 41.04C87.9598 40.74 88.7998 40.28 89.6698 39.89C89.6998 39.94 89.7398 39.98 89.7698 40.03C89.1598 40.53 88.5898 41.1 87.9198 41.52C86.2798 42.56 84.3798 42.8 82.5098 43.12C82.0098 43.2 81.4598 43.14 81.0098 43.32C79.1198 44.08 77.2298 44.87 75.3898 45.74C74.1598 46.32 73.3198 47.29 73.1198 48.72C73.0398 49.28 72.6598 51.64 72.4098 52.14C72.4098 52.14 77.7498 49.42 80.5798 48.25C83.4098 47.08 84.9498 46.6 84.9498 46.6C85.0198 46.62 85.1198 46.6 85.1998 46.57C86.3198 46.15 87.4598 45.76 88.5598 45.28C90.7998 44.31 92.8098 42.96 94.6898 41.43C97.3098 39.3 99.6698 36.94 101.1 33.81C101.34 33.29 101.75 32.82 101.57 32.16C101.18 30.74 101.41 29.33 101.83 27.97C102.18 26.83 102.68 25.72 103.22 24.65C104.09 22.91 105.3 21.43 107.01 20.44C107.6 20.1 108.21 19.8 108.81 19.48C108.56 19.33 108.33 19.3 108.1 19.34" fill="#CDA050"/>
<path d="M29.4103 51.95C32.5303 46.96 41.2103 42.56 41.2103 42.56C39.2703 42.35 37.4303 42.18 35.5903 41.95C34.7803 41.85 34.0803 41.27 33.8403 40.62C32.8103 37.8 31.5103 35.12 30.0003 32.53C28.8403 30.53 27.6603 28.53 26.5003 26.53C26.2803 26.15 26.0903 25.68 25.8503 25.24C24.5203 27.15 24.5103 30.55 24.5103 30.55C24.5103 30.55 25.5303 36.64 25.9803 38.65C26.4303 40.66 25.8103 41.32 25.8103 41.32C25.8103 41.32 24.8603 43.79 21.6303 52.13C18.4703 63.32 23.3303 70.86 23.3303 70.86C23.3303 70.86 25.7503 56.2 29.4003 51.95" fill="#CDA050"/>
<path d="M45.7097 73.13C47.5297 72.2 53.6497 66.69 56.6397 62.48C59.6397 58.27 59.3497 51.24 59.3497 51.24C47.7497 60.98 27.1697 67.73 27.1697 67.73L27.1397 67.78C27.0197 67.88 26.5197 69.94 26.4897 70.09C26.2997 70.87 26.1597 71.66 25.9497 72.43C25.8897 72.66 25.7197 72.97 25.5197 73.05C23.8197 73.77 22.5297 75.08 21.0797 76.16C20.6797 76.45 20.5297 76.84 20.4997 77.35C20.4497 78.05 20.4297 78.84 20.0997 79.42C19.0497 81.31 17.5097 82.79 15.8297 84.12C14.1297 85.47 12.3597 86.72 11.0597 88.5C10.7797 88.89 10.4497 89.25 10.0797 89.55C9.54969 89.99 8.90969 90.3 8.41969 90.78C6.89969 92.28 5.87969 94.13 4.88969 95.99C4.36969 96.97 3.93969 98.01 3.51969 99.04C3.30969 99.55 3.41969 100 3.95969 100.32C4.85969 100.86 5.71969 101.47 6.62969 102C7.21969 102.34 7.85969 102.59 8.39969 102.84L10.1997 103.19C10.5697 103.13 10.8797 103.11 11.1597 103.02C12.9797 102.43 14.8497 101.93 16.6097 101.18C18.5797 100.34 18.4597 100.91 18.6497 98.4C18.7497 97.06 18.9997 95.72 19.1297 94.38C19.1997 93.63 19.3797 92.78 19.1097 92.14C18.8697 91.57 18.8697 91.18 19.1797 90.78C19.8397 89.94 20.4997 89.1 21.2597 88.36C22.4497 87.2 23.6397 86.03 24.9597 85.04C26.7997 83.68 28.7497 82.48 30.6697 81.23C31.0697 80.97 31.2897 80.73 31.1097 80.23C30.8497 79.5 31.0897 78.98 31.6897 78.43C32.4597 77.73 33.0297 76.82 33.6997 76.02C33.8197 75.87 33.9797 75.71 34.1597 75.64L34.7697 75.45C37.3997 75.08 43.8797 74.07 45.6997 73.14" fill="#CDA050"/>
<path d="M57.3903 25.58L57.1203 25.85C56.8703 26.28 56.6603 26.67 56.4303 27.05C55.2003 29.01 53.9603 30.97 52.7303 32.93C51.5703 34.78 50.5203 36.68 49.6003 38.65C49.2603 39.38 48.9403 40.13 48.6303 40.89C48.3703 41.53 47.6503 42.09 46.8403 42.16C46.5603 42.18 46.2803 42.21 46.0003 42.23H45.6403C45.6403 42.23 36.3903 46.06 32.7703 50.81C29.9703 53.5 27.4203 61 26.0603 65.57C26.0603 65.57 26.0003 66.22 26.9803 65.63C27.1003 65.56 27.3003 65.43 27.5703 65.26L27.6503 65.24C31.3803 63.95 49.4003 57.45 59.6703 48.55L61.0503 51.71L61.1203 51.62C61.6003 49.95 62.0703 47.79 62.1403 47.18C62.2803 46.03 64.2203 38.83 57.3903 25.54V25.57V25.58Z" fill="#CDA050"/>
<path d="M50.2402 71.21C50.2402 71.21 50.6902 72.92 61.5102 66.91C65.3002 64.8 65.0802 62.98 67.4102 59.69C71.2202 54.29 70.9502 49.72 70.9502 49.72C70.1002 37.76 62.0802 31.5 62.0802 31.5C62.0802 31.5 65.9702 43.52 63.4802 53.24C60.9902 62.96 50.2402 71.22 50.2402 71.22" fill="#CDA050"/>
</g>
<defs>
<clipPath id="clip0_1_8327">
<rect width="341.92" height="103.27" fill="white"/>
</clipPath>
</defs>
</svg>
