<?xml version="1.0" standalone="no"?>
<!DOCTYPE svg PUBLIC "-//W3C//DTD SVG 20010904//EN"
 "http://www.w3.org/TR/2001/REC-SVG-20010904/DTD/svg10.dtd">
<svg version="1.0" xmlns="http://www.w3.org/2000/svg"
 width="4673.000000pt" height="1718.000000pt" viewBox="0 0 4673.000000 1718.000000"
 preserveAspectRatio="xMidYMid meet">

<g transform="translate(0.000000,1718.000000) scale(0.100000,-0.100000)"
fill="#000000" stroke="none">
<path d="M15186 16235 c-15 -39 -28 -528 -23 -840 12 -646 79 -1221 213 -1830
299 -1347 870 -2514 1678 -3425 100 -113 473 -476 586 -570 304 -254 628 -470
955 -639 65 -34 119 -61 121 -61 2 0 4 5 4 10 0 6 -6 10 -12 10 -17 0 -273
161 -418 263 -843 590 -1540 1423 -2039 2437 -569 1154 -871 2512 -871 3908 0
163 7 396 15 517 8 121 15 223 15 228 0 4 -49 7 -109 7 -87 0 -110 -3 -115
-15z"/>
<path d="M16387 16243 c-14 -27 -17 -906 -4 -1108 33 -528 127 -1079 268
-1578 68 -240 205 -633 269 -772 5 -11 18 -42 30 -70 40 -93 244 -505 251
-505 4 0 -20 71 -53 158 -408 1081 -592 2317 -523 3507 8 138 17 278 21 313
l6 62 -130 0 c-72 0 -133 -3 -135 -7z"/>
<path d="M19209 16182 c77 -77 121 -157 151 -273 16 -62 20 -109 20 -285 0
-602 -99 -771 -485 -828 -197 -30 -826 -17 -1170 23 -44 6 -114 13 -155 16
-41 4 -119 13 -172 21 -54 8 -112 14 -128 14 l-31 0 3 -107 3 -108 140 -6
c210 -10 470 -28 650 -45 393 -37 523 -72 660 -175 95 -71 139 -153 138 -254
0 -92 -14 -122 -157 -334 -158 -235 -244 -379 -581 -976 -82 -145 -115 -216
-167 -359 l-39 -110 45 -45 45 -45 42 94 c131 293 358 712 509 941 178 269
414 529 655 722 199 159 316 196 432 133 46 -25 175 -146 252 -237 188 -221
195 -523 22 -868 -82 -164 -137 -247 -294 -443 -210 -263 -553 -755 -697 -997
-39 -67 -90 -163 -111 -213 -22 -50 -48 -109 -58 -132 -37 -81 -37 -81 20
-152 l52 -66 59 119 c146 290 314 557 486 773 42 52 164 183 272 290 254 255
348 318 425 286 75 -32 114 -168 130 -461 9 -178 39 -564 50 -660 3 -22 12
-98 20 -170 26 -242 39 -337 81 -595 21 -130 62 -323 85 -395 17 -56 22 -63
66 -84 95 -46 203 -75 203 -55 0 4 -13 28 -29 54 -149 241 -257 691 -291 1205
-13 196 -13 668 0 870 36 566 153 873 373 979 150 73 378 73 531 1 61 -29 143
-111 176 -175 58 -115 81 -283 69 -515 -17 -302 -21 -961 -10 -1300 24 -701
76 -1110 153 -1192 19 -21 31 -23 120 -23 54 0 98 3 98 6 0 3 -16 26 -36 52
-55 72 -121 217 -150 327 -23 88 -27 121 -28 270 -2 172 21 690 39 905 3 30
12 141 20 245 35 459 49 554 90 634 44 88 110 124 182 100 82 -26 142 -82 308
-284 232 -281 492 -563 731 -794 144 -139 348 -311 369 -311 5 0 28 30 50 66
30 48 45 64 57 60 14 -3 36 26 99 130 90 151 259 479 338 659 29 66 56 129 61
140 38 85 83 204 84 225 1 14 8 44 16 67 10 32 18 42 32 40 16 -2 26 15 54 88
85 222 190 573 258 855 92 388 186 980 186 1177 0 65 4 91 16 104 20 23 31
111 44 379 11 222 11 844 0 985 -5 63 -7 42 -8 -96 -2 -183 -28 -818 -37 -879
-2 -19 -7 -71 -11 -115 -3 -44 -9 -109 -13 -145 l-6 -65 -45 -7 c-25 -4 -137
-14 -250 -23 -113 -9 -288 -23 -390 -31 -102 -8 -300 -17 -440 -20 -229 -5
-265 -4 -351 14 -125 26 -201 63 -270 131 -67 68 -93 128 -121 286 -28 159
-31 576 -5 684 42 174 118 271 256 327 l56 24 -317 0 c-175 0 -318 -2 -318 -6
0 -3 7 -35 15 -72 40 -186 49 -293 50 -577 0 -291 -7 -359 -56 -595 -72 -345
-206 -651 -397 -910 -74 -101 -270 -294 -357 -352 -197 -132 -373 -188 -590
-188 -403 0 -781 231 -1048 641 -113 174 -239 458 -286 645 -5 21 -17 68 -26
104 -96 379 -100 877 -9 1283 l6 27 -290 0 -291 0 68 -68z m5393 -1548 c-3
-32 -44 -283 -62 -379 -82 -449 -208 -934 -362 -1390 -63 -187 -52 -172 -91
-128 -150 170 -490 591 -604 749 -145 200 -228 352 -294 535 -29 79 -34 107
-34 181 0 81 2 88 31 125 65 81 220 137 519 187 55 10 118 21 140 27 22 5 67
13 100 18 33 6 114 19 180 31 66 11 158 27 205 34 47 8 112 19 145 25 131 24
131 24 127 -15z m-1985 -510 c136 -45 313 -199 488 -424 48 -63 112 -144 140
-180 112 -142 538 -694 707 -917 113 -149 109 -127 47 -261 -22 -46 -39 -85
-39 -88 0 -8 -173 -355 -215 -429 -73 -133 -235 -404 -245 -410 -23 -14 -467
347 -688 560 -40 38 -77 71 -81 73 -12 4 -277 293 -356 387 -126 151 -255 362
-309 507 -125 332 -102 717 60 974 46 73 93 115 176 156 147 71 220 84 315 52z"/>
<path d="M20412 16203 c-116 -270 -138 -679 -56 -1018 36 -148 106 -312 180
-426 46 -70 222 -264 232 -255 2 3 -16 62 -41 133 -90 254 -137 473 -157 743
-10 132 -10 184 5 350 9 107 18 197 20 200 2 4 9 38 15 76 12 73 33 149 56
202 8 18 14 35 14 37 0 3 -56 5 -124 5 l-124 0 -20 -47z"/>
<path d="M24935 15742 c-1 -516 -7 -638 -51 -1032 -35 -315 -107 -758 -154
-945 -5 -22 -28 -115 -50 -207 -258 -1074 -736 -2060 -1360 -2808 -137 -164
-422 -454 -585 -594 -303 -262 -539 -420 -850 -571 -384 -187 -673 -269 -1185
-340 l-105 -14 155 5 c1146 35 2300 756 3112 1944 509 745 883 1631 1093 2590
9 41 20 93 25 115 20 91 47 246 90 525 37 239 68 600 80 945 10 260 6 722 -6
843 l-5 52 -102 0 -102 0 0 -508z"/>
<path d="M26407 16179 c-3 -41 -15 -209 -27 -374 -12 -165 -22 -304 -23 -310
-2 -10 58 -10 101 0 20 5 22 11 22 63 0 138 -46 653 -60 681 -5 9 -10 -18 -13
-60z"/>
<path d="M27107 16243 c-2 -4 -5 -37 -6 -73 -1 -36 -4 -87 -6 -115 -3 -27 -10
-103 -16 -168 -6 -66 -8 -121 -5 -124 11 -12 86 59 86 81 0 33 -41 400 -45
404 -1 2 -5 0 -8 -5z"/>
<path d="M27799 16205 c0 -28 -2 -66 -4 -85 -2 -19 -8 -102 -15 -185 -15 -209
-57 -535 -95 -743 -8 -42 -21 -115 -29 -161 -9 -47 -13 -87 -10 -90 3 -3 57
48 121 114 l116 119 -6 261 c-6 246 -22 474 -48 700 -13 110 -29 147 -30 70z"/>
<path d="M28489 16158 c0 -106 -4 -156 -25 -358 -76 -732 -232 -1415 -493
-2165 -97 -282 -209 -573 -276 -721 -48 -104 -90 -210 -115 -284 -15 -47 -48
-141 -73 -210 -41 -114 -53 -147 -78 -205 -5 -11 -18 -45 -29 -75 -11 -30 -25
-64 -30 -75 -5 -11 -29 -67 -53 -125 -75 -177 -116 -265 -244 -520 -554 -1108
-1261 -1986 -2078 -2581 -146 -106 -503 -339 -520 -339 -2 0 -28 -14 -57 -31
-199 -119 -828 -399 -894 -399 -8 0 -14 -5 -14 -11 0 -6 -7 -9 -15 -5 -19 7
-289 -47 -350 -71 -18 -6 -20 -49 -3 -59 45 -28 566 94 713 166 22 11 114 44
205 74 1099 359 2034 1042 2766 2021 223 298 421 604 628 970 63 111 267 514
311 615 15 36 38 88 51 115 137 299 338 854 440 1213 136 481 245 987 269
1252 4 41 8 77 10 80 2 3 6 50 9 105 4 55 11 156 17 225 10 126 14 877 5 921
-3 13 -8 67 -11 119 -7 117 -23 283 -35 370 -5 36 -10 68 -10 73 0 4 -4 7 -10
7 -6 0 -10 -38 -11 -92z"/>
<path d="M29186 16118 c-32 -651 -185 -1449 -418 -2183 -99 -315 -284 -818
-363 -990 -68 -150 -195 -450 -226 -535 -56 -157 -158 -415 -204 -515 -7 -16
-32 -73 -55 -125 -236 -538 -592 -1147 -964 -1650 -620 -838 -1424 -1493
-2311 -1885 -233 -103 -277 -119 -351 -125 -57 -5 -94 -17 -187 -61 -64 -30
-116 -58 -117 -63 0 -4 8 -5 17 -2 10 4 78 13 153 21 212 21 268 33 272 57 2
16 20 25 88 44 183 52 522 171 635 223 11 5 58 26 105 47 440 192 887 473
1305 820 165 137 517 488 666 664 677 797 1241 1829 1594 2910 233 716 407
1552 436 2090 20 356 3 919 -36 1245 -8 66 -15 125 -15 132 0 7 -4 13 -8 13
-5 0 -12 -60 -16 -132z"/>
<path d="M29885 16125 c-7 -117 -6 -126 15 -155 27 -37 41 -39 35 -2 -5 30
-11 90 -21 200 -4 40 -10 75 -14 77 -4 3 -11 -51 -15 -120z"/>
<path d="M30474 16058 c21 -654 21 -658 -26 -658 -61 0 -295 152 -430 280 -58
54 -98 85 -98 76 0 -22 -13 -20 -35 4 -10 11 -21 17 -25 15 -4 -3 -13 -55 -19
-117 -18 -159 -65 -464 -103 -657 l-32 -164 40 -33 c21 -19 67 -53 101 -76 36
-25 63 -50 63 -60 0 -10 19 -30 42 -44 54 -34 198 -104 215 -104 18 0 45 -44
37 -63 -14 -37 -77 -24 -209 43 -32 17 -70 30 -85 30 -23 0 -171 91 -222 137
-20 18 -24 11 -42 -68 -51 -226 -170 -601 -299 -944 -103 -272 -175 -446 -183
-443 -14 5 -9 46 20 153 69 253 140 653 196 1105 20 157 25 228 14 218 -3 -3
-11 -50 -19 -104 -20 -143 -68 -394 -110 -584 -39 -173 -181 -746 -189 -759
-6 -9 27 -123 56 -194 21 -50 26 -56 38 -43 11 14 16 10 38 -31 50 -95 107
-170 201 -263 56 -55 96 -103 96 -115 0 -12 20 -33 55 -57 56 -38 86 -46 92
-27 2 6 31 -3 73 -23 69 -33 70 -34 73 -75 3 -39 0 -44 -29 -62 -29 -18 -35
-18 -73 -5 -22 8 -64 28 -93 44 -29 17 -53 26 -53 21 0 -13 -83 -151 -88 -147
-2 2 7 40 19 85 20 74 24 81 43 75 21 -7 21 -6 2 15 -11 11 -24 21 -31 21 -23
0 -140 97 -220 182 -81 86 -166 203 -180 248 -4 14 -14 34 -22 45 -15 19 -15
19 -9 -5 4 -16 -2 -42 -16 -72 -21 -44 -38 -61 -38 -38 0 12 26 109 35 133 4
9 3 17 -2 17 -10 0 -20 -22 -117 -270 -159 -402 -148 -372 -132 -388 17 -17
21 -5 -76 -242 -62 -150 -161 -374 -233 -523 l-48 -99 7 -111 c19 -314 154
-561 364 -666 53 -27 70 -58 53 -100 -7 -16 -26 -35 -41 -41 -25 -11 -36 -8
-88 20 -202 107 -364 344 -407 595 -4 22 -9 43 -12 48 -3 4 -42 -59 -87 -140
-225 -403 -486 -792 -763 -1137 l-103 -128 0 -59 c0 -186 98 -352 257 -437 33
-17 64 -39 67 -48 19 -50 -12 -104 -60 -104 -78 0 -269 158 -328 270 -35 67
-66 155 -66 187 0 12 -3 23 -7 23 -5 0 -100 -91 -213 -203 -113 -112 -259
-250 -325 -306 -150 -129 -420 -331 -587 -441 -71 -46 -128 -88 -128 -94 0
-15 84 -103 143 -150 26 -21 50 -49 53 -62 9 -34 8 -34 219 28 219 64 485 162
632 234 62 30 134 61 160 70 71 24 298 145 548 293 247 145 506 329 735 520
151 125 530 504 657 657 613 733 1051 1625 1312 2669 56 224 120 535 150 730
11 72 25 159 31 195 29 188 66 550 80 790 6 96 13 209 15 250 6 96 6 1028 0
1140 -2 47 -7 136 -11 198 l-6 112 -111 0 -110 0 7 -192z m-190 -663 c56 -30
118 -58 139 -61 20 -4 37 -9 37 -13 0 -27 -73 -423 -106 -576 -30 -142 -119
-509 -140 -580 -8 -27 -35 -122 -60 -210 -60 -214 -115 -387 -126 -402 -5 -7
-7 -17 -3 -22 11 -20 120 -98 208 -151 81 -48 88 -55 83 -79 -3 -14 -8 -43
-12 -64 -7 -43 -16 -51 -41 -38 -127 68 -273 167 -274 185 0 6 -39 42 -87 81
-133 106 -256 260 -340 426 -29 57 -32 69 -21 92 6 14 25 31 42 38 42 18 71
-2 111 -76 61 -113 164 -260 220 -315 31 -30 56 -51 56 -48 0 4 -30 42 -66 84
-49 59 -64 83 -60 99 21 84 64 341 91 545 9 69 19 130 20 137 3 7 33 -3 87
-29 105 -52 155 -56 195 -15 22 22 28 37 28 71 0 58 -24 83 -123 126 -42 19
-96 46 -120 60 l-44 25 7 55 c4 40 18 789 15 842 0 4 41 -24 92 -62 50 -38
136 -94 192 -125z m-406 -1942 l73 -77 -85 -196 c-135 -314 -258 -580 -267
-580 -13 0 -12 9 27 142 60 208 120 478 149 675 8 57 15 105 15 108 0 15 22
-3 88 -72z m-870 -1482 c9 -11 42 -61 72 -112 39 -65 85 -122 155 -194 110
-111 191 -172 305 -230 97 -50 110 -61 110 -101 0 -33 -36 -74 -67 -74 -18 0
-139 61 -211 107 -119 76 -259 203 -340 310 -64 83 -142 217 -142 243 0 59 79
93 118 51z m-823 -1822 c62 -117 139 -185 242 -215 55 -16 93 -51 93 -86 0
-10 -12 -30 -26 -45 -22 -22 -31 -24 -67 -19 -128 21 -292 147 -355 275 -38
76 -39 90 -11 125 17 22 28 27 58 24 33 -3 39 -8 66 -59z m-1358 -1270 c210
-96 303 -143 303 -151 0 -4 -32 -24 -71 -44 l-71 -35 -47 20 c-147 63 -263
124 -277 146 -18 28 -12 57 19 85 29 28 44 26 144 -21z"/>
<path d="M27127 15622 c-20 -13 -45 -25 -55 -26 -9 -1 -53 -20 -97 -43 -44
-22 -121 -57 -171 -77 -88 -35 -270 -86 -306 -86 -10 0 -27 -9 -38 -20 -12
-12 -41 -25 -66 -29 -25 -5 -48 -11 -51 -14 -3 -4 -20 -113 -38 -244 -79 -571
-204 -1172 -348 -1665 -27 -93 -31 -118 -20 -118 18 0 204 37 261 52 31 8 46
8 50 0 8 -11 254 69 281 91 9 8 48 26 86 42 99 40 197 89 291 146 83 49 100
57 89 39 -27 -43 121 58 223 152 63 60 89 61 108 5 12 -34 11 -39 -9 -58 -38
-36 -200 -155 -257 -189 -30 -18 -66 -45 -80 -61 -32 -35 -181 -114 -331 -173
-114 -45 -156 -56 -144 -36 10 16 -16 12 -151 -26 -94 -26 -134 -43 -149 -60
-21 -25 -94 -45 -249 -67 l-78 -12 -83 -245 c-96 -287 -257 -716 -324 -865 -5
-11 -42 -94 -82 -185 -39 -91 -111 -244 -158 -340 -47 -96 -87 -178 -89 -182
-6 -13 167 -9 298 7 144 17 317 55 434 95 167 57 245 94 803 381 61 31 125 60
141 63 35 8 68 -16 77 -55 13 -53 7 -56 -542 -334 -419 -212 -691 -290 -1050
-302 -148 -5 -175 -4 -197 10 -28 19 -32 16 -66 -53 -39 -77 -224 -380 -305
-500 -172 -253 -350 -474 -543 -672 -68 -69 -119 -129 -115 -131 16 -10 427
11 549 28 355 48 647 123 954 246 133 53 181 60 204 28 41 -60 12 -97 -119
-150 -309 -125 -701 -229 -995 -264 -30 -4 -66 -8 -80 -10 -85 -13 -310 -25
-478 -25 l-195 0 -65 -57 c-344 -304 -646 -515 -1010 -706 -68 -35 -123 -68
-123 -73 0 -14 181 -53 416 -91 162 -26 738 -26 910 0 128 20 287 50 346 67
25 7 45 7 63 0 52 -19 60 -94 13 -124 -27 -18 -275 -68 -457 -93 -192 -25
-659 -25 -850 1 -146 19 -355 58 -435 81 -27 7 -70 19 -94 25 -24 6 -54 23
-67 37 l-24 26 -43 -17 c-679 -277 -1406 -412 -2251 -418 -288 -2 -289 -1 24
-48 166 -24 501 -79 670 -109 371 -65 510 -79 910 -91 184 -5 448 -14 585 -20
138 -5 329 -10 425 -11 l175 -1 145 41 c80 23 204 63 275 88 72 25 140 47 153
50 42 10 23 25 -25 19 -114 -13 -309 -25 -519 -31 l-181 -6 -32 26 c-37 32
-40 67 -8 99 22 22 30 23 277 29 140 4 269 9 285 11 17 2 68 7 115 11 122 9
307 32 484 60 l153 24 149 81 c315 173 599 366 869 590 196 162 219 191 128
155 -101 -39 -280 -83 -473 -116 -151 -26 -472 -38 -496 -18 -43 35 -33 101
18 118 17 6 61 11 97 11 345 1 774 102 1115 263 107 50 112 54 214 166 181
198 365 433 548 696 154 221 319 483 310 492 -3 3 -31 -11 -63 -30 -132 -78
-163 -97 -167 -97 -2 0 -39 -16 -83 -36 -111 -51 -129 -58 -213 -87 -172 -59
-444 -116 -557 -117 -60 0 -93 25 -93 70 0 44 36 67 115 74 326 32 670 151
957 333 103 66 242 169 290 217 43 44 295 566 414 858 109 269 278 741 272
760 -2 4 -44 -25 -93 -65 -136 -111 -296 -215 -469 -306 -87 -46 -93 -47 -98
-27 -5 21 -176 -54 -200 -87 -19 -26 -119 -64 -266 -101 -87 -22 -107 -20
-131 10 -50 63 -13 103 128 139 56 14 150 44 208 65 58 22 108 40 110 40 3 0
3 -7 -1 -15 -9 -25 23 -17 114 29 56 28 92 52 105 73 11 17 40 41 65 54 65 35
213 133 301 200 110 84 283 242 308 282 12 19 49 147 85 288 52 206 67 254 83
260 16 6 24 35 51 170 53 274 80 449 106 695 18 169 32 452 21 442 -4 -4 -8
-29 -10 -55 -3 -80 -28 -233 -37 -233 -4 0 -8 47 -8 105 0 82 4 112 17 133 9
15 -28 -16 -83 -68 -123 -119 -178 -162 -197 -155 -8 4 -27 -5 -43 -18 -51
-42 -185 -130 -298 -195 -150 -86 -90 -71 107 27 l158 79 -6 -32 c-4 -17 -13
-51 -21 -76 -7 -25 -36 -124 -63 -220 -28 -96 -63 -218 -79 -270 -30 -95 -30
-95 -63 -96 -19 -1 -42 -2 -51 -3 -10 0 -50 -30 -89 -66 -39 -36 -74 -64 -76
-61 -2 2 5 87 16 188 18 156 41 447 36 455 -1 2 -51 -15 -112 -36 -60 -22
-138 -45 -172 -52 -53 -11 -62 -17 -68 -39 -18 -78 -103 -350 -162 -520 -16
-47 -50 -143 -75 -215 l-45 -130 -100 -31 c-55 -18 -102 -30 -104 -28 -2 2 9
61 25 131 121 540 189 1120 187 1603 l-1 185 59 18 c128 41 263 94 352 139
l94 48 -7 -63 c-23 -224 -90 -594 -160 -889 -7 -32 -11 -60 -9 -62 3 -3 15 -1
26 4 12 5 47 16 77 25 30 9 89 30 131 46 l76 30 7 67 c11 113 18 823 9 893
l-8 66 -38 -25z m105 -2074 c-133 -331 -366 -862 -392 -893 -24 -28 -27 -5 -8
52 34 102 116 432 153 618 30 151 39 182 58 195 48 33 165 129 207 171 25 24
46 41 48 37 2 -3 -28 -84 -66 -180z m-852 -346 c0 -19 -209 -518 -361 -859
-35 -81 -41 -63 -7 25 73 188 192 564 239 755 13 52 17 56 69 73 44 15 60 16
60 6z"/>
<path d="M29403 14745 c0 -27 2 -38 4 -22 2 15 2 37 0 50 -2 12 -4 0 -4 -28z"/>
<path d="M16095 14219 c-49 -10 -175 -34 -280 -54 -104 -20 -191 -38 -193 -39
-3 -4 24 -136 29 -141 2 -2 48 6 103 17 54 11 102 16 106 11 4 -4 15 -48 25
-98 9 -49 19 -93 21 -96 3 -6 68 4 100 15 8 3 6 30 -7 93 -26 124 -29 118 43
131 34 6 65 8 69 4 6 -8 39 -177 39 -204 0 -26 14 -29 69 -17 l52 11 -7 36
c-26 148 -66 337 -72 343 -4 3 -47 -2 -97 -12z"/>
<path d="M16310 13618 c-19 -5 -36 -11 -37 -12 -3 -2 27 -118 33 -127 4 -8 85
10 97 21 4 4 0 35 -9 68 -19 67 -21 68 -84 50z"/>
<path d="M15973 13526 c-106 -29 -196 -55 -199 -59 -8 -8 15 -115 27 -123 10
-6 397 93 411 105 6 6 -15 101 -27 121 -8 13 9 16 -212 -44z"/>
<path d="M16085 13123 c-104 -36 -192 -67 -194 -70 -7 -5 31 -113 41 -119 5
-3 50 8 101 24 50 17 104 33 120 36 38 9 84 -18 104 -59 9 -19 22 -35 28 -35
28 0 105 33 105 46 0 24 -61 84 -86 84 -32 0 -30 11 5 32 l30 16 -20 54 c-10
29 -19 54 -19 55 0 8 -43 -5 -215 -64z"/>
<path d="M16320 12657 c-95 -35 -165 -73 -189 -103 -38 -49 -21 -146 49 -278
35 -66 49 -74 94 -52 21 10 36 21 34 24 -36 69 -71 155 -75 184 -5 33 -2 39
21 49 16 8 30 9 35 3 5 -5 31 -58 56 -117 54 -122 44 -118 150 -63 44 23 65
41 78 69 17 34 17 41 3 95 -18 71 -65 160 -98 185 -38 29 -86 30 -158 4z m129
-133 c28 -35 27 -79 -1 -98 -35 -25 -43 -20 -67 40 -27 63 -22 72 41 83 4 0
16 -11 27 -25z"/>
<path d="M16625 12083 c-53 -28 -85 -64 -85 -97 0 -17 12 -64 27 -104 24 -67
25 -75 10 -89 -25 -25 -41 -10 -87 79 -23 45 -44 85 -46 87 -6 7 -84 -31 -84
-40 0 -5 21 -51 46 -103 48 -99 91 -152 131 -162 55 -14 183 66 183 114 0 11
-14 57 -31 102 -26 67 -29 84 -18 91 33 21 59 -5 105 -105 14 -31 29 -56 32
-56 18 0 72 41 72 55 0 29 -75 170 -111 207 -30 32 -42 38 -75 38 -21 -1 -52
-8 -69 -17z"/>
<path d="M16972 11626 c-46 -33 -46 -31 -26 -65 12 -20 15 -34 9 -40 -6 -5
-67 -47 -137 -93 l-127 -83 31 -50 c17 -28 33 -54 37 -58 4 -4 68 33 142 82
l134 89 32 -36 c34 -39 41 -38 97 3 18 13 18 15 -1 42 -11 15 -23 33 -26 39
-4 7 13 25 43 44 28 18 50 35 50 39 0 9 -59 99 -69 105 -4 3 -29 -9 -55 -27
l-48 -31 -27 31 -26 32 -33 -23z"/>
<path d="M17235 11135 c-70 -36 -186 -134 -209 -177 -18 -32 -19 -40 -7 -76
18 -52 106 -170 150 -199 19 -13 49 -23 67 -23 59 0 251 146 276 210 25 66
-115 263 -202 285 -17 4 -42 -3 -75 -20z m116 -146 c16 -17 29 -41 29 -53 0
-24 -67 -87 -134 -127 l-36 -21 -30 32 c-39 41 -38 69 3 107 40 38 117 93 129
93 6 0 23 -14 39 -31z"/>
<path d="M17562 10522 l-153 -147 46 -48 46 -47 109 100 c65 60 118 100 130
100 24 0 70 -42 70 -65 0 -8 -49 -63 -110 -123 l-110 -107 46 -48 47 -49 41
39 c125 115 209 201 223 227 9 17 13 40 9 58 -12 61 -88 128 -144 128 -34 0
-35 1 -18 19 17 19 17 21 -20 65 -21 25 -43 46 -49 46 -5 0 -79 -67 -163 -148z"/>
<path d="M18161 10149 c-30 -12 -136 -121 -173 -178 -58 -93 -25 -158 150
-293 l53 -41 29 28 c17 16 30 34 30 41 0 6 -30 36 -67 66 -86 70 -102 96 -78
132 10 14 20 26 24 26 3 0 49 -39 101 -85 l95 -85 29 32 c114 131 115 180 8
280 -82 77 -143 100 -201 77z m126 -141 c27 -26 30 -58 6 -87 l-18 -22 -50 44
c-50 44 -50 45 -31 66 25 27 64 27 93 -1z"/>
<path d="M16720 8543 c1 -9 -3 -6 178 -135 806 -578 1754 -1074 2687 -1408
992 -354 1948 -555 3070 -644 186 -15 421 -21 850 -21 512 0 799 11 1075 40
25 2 72 7 105 10 291 27 747 94 1085 160 853 167 1715 442 2490 795 144 65
578 282 685 342 44 24 107 59 140 78 313 174 936 577 934 604 0 7 -3 6 -6 -1
-2 -7 -9 -13 -15 -13 -6 0 -45 -22 -87 -49 -177 -113 -628 -360 -881 -483
-619 -301 -1179 -524 -1820 -723 -219 -68 -632 -181 -810 -220 -36 -8 -126
-29 -200 -45 -357 -80 -845 -162 -1220 -205 -1193 -138 -2370 -109 -3540 85
-180 30 -474 86 -595 115 -33 7 -103 24 -155 36 -519 121 -1004 268 -1525 461
-104 39 -203 76 -220 84 -16 7 -55 22 -85 34 -30 11 -64 25 -75 30 -11 5 -81
34 -155 66 -280 117 -784 358 -995 474 -27 15 -90 50 -140 77 -49 28 -112 63
-140 78 -71 39 -520 310 -582 351 -29 19 -53 31 -53 27z"/>
<path d="M25745 8459 c-117 -67 -373 -192 -505 -248 -136 -57 -171 -73 -167
-77 9 -9 543 74 749 117 57 11 123 25 148 30 75 15 75 16 12 68 -33 27 -77 72
-98 100 -22 28 -46 50 -54 50 -8 0 -46 -18 -85 -40z"/>
<path d="M31269 7705 c-213 -42 -403 -176 -478 -335 -32 -68 -35 -85 -39 -182
-5 -129 15 -210 76 -303 76 -118 178 -182 326 -205 65 -11 109 -11 250 1 94 8
232 14 308 14 l136 0 39 -31 c110 -88 109 -231 -4 -334 -67 -61 -124 -92 -218
-115 -125 -31 -235 -8 -320 66 -37 33 -45 71 -25 123 5 14 8 26 6 26 -11 0
-349 -69 -352 -72 -5 -6 25 -90 54 -148 37 -74 170 -207 247 -247 147 -77 309
-84 512 -23 229 69 395 226 449 425 23 85 18 218 -12 308 -57 172 -170 284
-333 329 -84 23 -266 24 -434 2 -68 -9 -167 -14 -224 -12 -118 4 -144 16 -180
89 -64 128 16 245 219 318 110 40 187 35 259 -15 45 -31 56 -60 40 -105 -6
-18 -10 -34 -8 -36 5 -4 338 94 345 102 3 3 -12 40 -33 82 -113 227 -341 331
-606 278z"/>
<path d="M31736 7643 c68 -55 118 -114 165 -198 46 -82 49 -125 9 -136 -14 -3
-81 -23 -150 -44 -69 -20 -150 -44 -180 -52 -76 -21 -78 -23 -37 -44 26 -14
43 -16 59 -10 13 5 106 32 208 61 102 29 191 57 198 63 20 16 14 52 -24 125
-44 86 -118 170 -193 221 -81 55 -119 64 -55 14z"/>
<path d="M15307 7520 c3 -19 14 -51 24 -70 28 -55 23 -5 -6 55 -22 46 -24 48
-18 15z"/>
<path d="M15377 7454 c15 -76 8 -97 -105 -286 -60 -100 -135 -227 -167 -280
-64 -109 -66 -111 -116 -127 -32 -10 -142 -80 -129 -82 3 0 19 -3 35 -5 82
-12 80 -5 23 -102 -200 -340 -302 -508 -316 -519 -9 -7 -37 -19 -61 -26 l-45
-14 150 -88 c82 -49 295 -175 474 -281 194 -116 328 -190 334 -184 11 11 176
293 173 296 -1 2 -24 -2 -50 -8 -44 -9 -53 -7 -100 17 -100 52 -509 298 -513
309 -3 9 242 435 262 455 8 9 39 -28 110 -135 42 -62 98 -134 125 -159 137
-128 280 -115 391 35 59 80 61 92 12 78 -42 -11 -103 1 -165 33 -23 11 -71 57
-116 112 -92 109 -154 171 -206 204 l-38 24 28 49 c15 26 59 102 98 168 l69
120 30 -15 c70 -36 503 -297 523 -315 12 -11 27 -40 34 -64 8 -24 16 -44 19
-44 12 0 181 303 174 310 -5 5 -115 70 -244 146 -235 137 -634 374 -678 402
l-24 15 9 -39z"/>
<path d="M31285 7374 c-119 -44 -179 -87 -207 -152 -32 -72 -5 -162 57 -188
47 -19 48 -19 28 19 -22 43 -22 114 2 154 38 65 176 136 290 149 54 7 56 8 34
20 -32 18 -154 16 -204 -2z"/>
<path d="M30052 7321 c2 -5 47 -112 102 -239 98 -228 99 -230 138 -245 48 -19
55 -43 -66 238 -76 178 -100 223 -123 237 -30 19 -57 24 -51 9z"/>
<path d="M29600 7110 c-228 -98 -428 -184 -445 -190 -16 -7 -48 -20 -70 -30
-22 -9 -55 -23 -72 -30 -18 -7 -33 -15 -33 -19 0 -3 21 -17 48 -31 46 -25 70
-58 109 -156 6 -16 59 -141 117 -277 l106 -248 -15 -56 c-16 -59 -20 -153 -8
-153 4 0 24 17 45 37 34 33 38 35 44 17 4 -10 20 -47 35 -82 16 -35 29 -66 29
-68 0 -3 9 -26 21 -52 11 -26 27 -63 35 -82 9 -19 19 -44 24 -55 71 -161 130
-312 130 -331 0 -14 -7 -41 -15 -61 -8 -20 -13 -38 -10 -41 2 -3 193 75 422
173 505 215 482 205 566 240 52 22 66 32 62 44 -24 67 -141 331 -146 331 -4 0
-9 -12 -12 -27 -13 -65 -47 -85 -360 -219 -173 -73 -302 -123 -307 -118 -5 5
-36 74 -70 154 -34 80 -65 154 -70 165 -41 87 -77 186 -70 190 5 3 93 4 197 3
205 -3 253 5 335 60 91 60 113 204 51 345 -19 44 -27 46 -42 8 -17 -40 -79
-97 -131 -120 -25 -10 -81 -22 -125 -26 -192 -15 -276 -27 -325 -45 -30 -11
-55 -18 -57 -16 -5 5 -162 370 -160 372 6 5 596 253 613 258 11 3 42 0 69 -9
27 -8 51 -12 53 -10 3 2 -19 60 -47 127 -75 176 -90 208 -99 207 -4 0 -194
-81 -422 -179z"/>
<path d="M15536 6997 c-8 -12 -46 -75 -86 -141 -68 -113 -70 -119 -54 -137 9
-11 20 -19 24 -19 4 0 38 52 76 115 38 63 72 115 76 115 8 0 459 -266 506
-297 20 -14 22 -14 22 4 0 49 -45 84 -298 233 -249 146 -253 148 -266 127z"/>
<path d="M32079 6940 c124 -98 201 -265 201 -435 0 -170 -49 -285 -175 -411
-100 -100 -214 -161 -375 -200 -90 -22 -120 -25 -210 -21 -58 3 -116 8 -129
12 -16 5 -22 5 -18 -2 16 -25 133 -48 247 -47 248 1 502 115 626 282 79 108
131 268 121 378 -17 194 -133 386 -275 458 -70 35 -72 33 -13 -14z"/>
<path d="M29751 6819 c-150 -65 -275 -120 -276 -121 -3 -4 125 -301 133 -310
11 -11 52 3 52 17 0 7 -10 34 -21 61 -77 177 -83 194 -73 203 12 11 559 241
573 241 20 0 11 18 -11 24 -62 16 -106 3 -377 -115z"/>
<path d="M16235 6718 c-110 -185 -125 -215 -119 -242 3 -17 9 -35 11 -39 3 -5
63 88 134 206 125 208 128 215 118 250 -5 21 -12 37 -14 37 -2 0 -61 -95 -130
-212z"/>
<path d="M16593 6813 c-13 -2 -23 -6 -23 -8 0 -1 13 -17 29 -34 43 -46 46 -81
12 -159 -35 -80 -117 -264 -156 -347 -15 -33 -56 -125 -92 -205 -36 -80 -74
-165 -85 -190 -246 -543 -245 -542 -311 -573 l-30 -15 49 -25 c27 -13 83 -39
124 -57 41 -18 104 -46 139 -62 35 -16 65 -27 68 -25 2 2 -1 16 -7 31 -19 50
-11 101 29 187 21 46 58 127 81 179 24 52 60 133 81 178 22 46 39 85 39 87 0
2 20 46 45 99 25 53 45 98 45 100 0 3 16 38 35 79 19 41 35 79 35 85 0 5 6 15
13 21 12 9 15 -44 22 -312 4 -177 11 -432 14 -567 5 -193 4 -253 -7 -285 -7
-22 -16 -47 -18 -55 -4 -11 16 -25 71 -49 42 -19 108 -56 148 -82 40 -26 75
-45 80 -42 4 2 7 14 7 27 0 36 27 118 69 208 21 46 69 151 106 233 37 83 78
175 92 205 118 259 194 429 279 620 78 177 107 224 151 245 23 11 41 24 40 28
-1 4 -56 32 -122 61 -66 30 -151 68 -189 85 -67 31 -68 31 -62 9 4 -13 9 -43
12 -68 6 -46 -13 -95 -200 -501 -48 -106 -137 -304 -173 -387 -20 -46 -39 -80
-43 -75 -4 4 -13 242 -19 528 -11 508 -16 624 -28 675 -16 71 -73 130 -144
150 -33 10 -162 11 -206 3z"/>
<path d="M28900 6805 c19 -9 55 -18 80 -21 l45 -5 -30 14 c-17 8 -53 17 -80
21 l-50 6 35 -15z"/>
<path d="M16500 6806 c0 -37 67 -116 99 -116 15 0 14 8 -8 44 -23 37 -91 91
-91 72z"/>
<path d="M30230 6686 c0 -2 16 -30 35 -62 43 -71 65 -138 72 -219 10 -118 -37
-204 -140 -255 -90 -44 -150 -52 -319 -44 -104 5 -148 3 -148 -4 0 -6 15 -46
34 -89 18 -43 59 -140 92 -215 32 -76 63 -138 69 -138 6 0 19 6 29 13 16 12
11 27 -63 201 -45 104 -80 191 -78 192 2 2 89 5 193 6 l189 3 67 33 c75 36
132 95 148 151 26 93 0 229 -65 340 -34 58 -70 91 -100 91 -8 0 -15 -2 -15 -4z"/>
<path d="M31470 6653 c-111 -14 -314 -13 -370 2 l-25 6 25 -15 c35 -20 167
-46 235 -46 31 0 121 7 202 15 80 9 188 17 239 18 52 1 94 5 94 9 0 30 -206
36 -400 11z"/>
<path d="M14797 6643 c-2 -4 0 -23 5 -40 8 -30 12 -33 46 -33 31 0 40 5 55 31
10 18 16 33 15 34 -9 8 -117 15 -121 8z"/>
<path d="M16989 6625 c-7 -13 18 -1036 26 -1043 16 -17 20 35 17 271 -6 474
-25 807 -43 772z"/>
<path d="M28198 6509 c-67 -10 -148 -31 -238 -64 -36 -13 -168 -60 -295 -105
-126 -45 -256 -91 -287 -102 -32 -11 -58 -23 -57 -27 0 -3 18 -19 41 -36 57
-42 56 -41 183 -400 25 -71 61 -172 80 -224 19 -51 35 -99 35 -106 0 -15 -51
-35 -89 -35 -25 0 -25 -1 14 -34 22 -19 61 -47 87 -63 l47 -28 76 -215 c42
-118 90 -252 106 -297 40 -109 44 -139 25 -193 -8 -24 -14 -46 -12 -47 2 -2
54 15 117 38 63 22 153 55 201 72 49 18 88 34 88 37 0 3 -19 16 -41 30 -47 29
-59 46 -86 125 -12 33 -44 125 -73 205 -99 278 -110 314 -103 321 5 4 52 22
106 39 91 31 100 32 144 19 68 -19 153 -90 421 -353 113 -111 133 -136 138
-168 4 -21 11 -38 15 -38 5 0 57 18 117 39 59 22 147 53 196 70 49 17 91 33
94 35 2 2 -34 22 -80 44 -87 42 -69 25 -520 459 l-97 93 58 55 c196 187 181
518 -32 729 -119 119 -213 150 -379 125z m128 -316 c48 -24 98 -95 114 -162
10 -42 9 -59 -4 -105 -29 -99 -79 -132 -343 -227 -169 -61 -193 -67 -193 -47
0 11 -9 38 -100 287 -22 63 -39 119 -37 125 3 6 29 20 58 30 30 10 104 37 164
59 198 72 264 80 341 40z"/>
<path d="M28155 6176 c-74 -20 -339 -116 -349 -126 -7 -7 88 -298 116 -352 10
-20 25 -22 47 -9 12 8 5 35 -37 158 -29 81 -52 153 -52 159 0 13 315 125 395
139 55 10 58 12 38 23 -35 19 -104 22 -158 8z"/>
<path d="M28535 6468 c142 -102 244 -306 245 -487 0 -114 -55 -251 -136 -335
-24 -26 -44 -48 -44 -50 0 -1 111 -108 246 -237 217 -207 327 -300 338 -288 3
4 -353 347 -454 437 l-55 49 53 58 c92 101 126 190 125 335 0 107 -18 179 -68
280 -52 104 -170 221 -251 250 l-29 10 30 -22z"/>
<path d="M15186 6412 c-21 -37 -53 -92 -71 -122 -121 -207 -118 -200 -104
-216 6 -8 18 -14 26 -12 7 2 57 77 111 168 54 91 102 165 107 165 6 0 40 -45
76 -101 107 -162 190 -234 295 -253 127 -24 242 55 328 226 36 72 41 98 30
141 -7 23 -24 31 -24 10 0 -32 -79 -166 -124 -211 -163 -163 -338 -107 -518
164 -40 60 -77 109 -83 109 -5 0 -28 -31 -49 -68z"/>
<path d="M31365 6428 c-36 -74 -33 -100 13 -136 21 -17 51 -34 68 -38 l29 -7
-27 22 c-34 27 -36 58 -8 120 11 24 20 46 20 50 0 4 -16 15 -35 24 l-35 17
-25 -52z"/>
<path d="M17804 6307 c-95 -34 -105 -44 -158 -163 -27 -60 -62 -138 -78 -174
-17 -36 -58 -128 -93 -205 -34 -77 -79 -175 -99 -218 -20 -43 -36 -80 -36 -82
0 -2 -18 -41 -39 -87 -40 -86 -96 -210 -182 -405 -32 -72 -53 -139 -61 -188
-12 -76 -23 -90 -48 -60 -40 48 -350 208 -350 180 0 -3 6 -21 14 -39 10 -25
24 -37 53 -46 63 -21 193 -89 271 -143 40 -27 74 -48 76 -46 2 2 9 39 15 83 9
54 29 114 65 195 29 64 63 139 75 166 13 28 31 68 41 90 30 65 110 242 253
560 197 437 194 431 224 459 15 15 53 34 83 42 30 9 59 20 63 24 7 6 -17 81
-25 79 -2 0 -30 -10 -64 -22z"/>
<path d="M18120 6263 c0 -14 72 -104 78 -98 6 5 -43 79 -64 96 -8 6 -14 7 -14
2z"/>
<path d="M18200 6234 c0 -3 9 -22 20 -44 11 -22 20 -50 20 -64 0 -20 -38 -162
-154 -578 -18 -67 -26 -80 -61 -106 -45 -32 -105 -97 -105 -113 0 -6 8 -8 18
-5 9 2 32 8 51 11 l34 7 -8 -38 c-7 -38 -32 -132 -121 -443 -24 -85 -44 -159
-44 -164 0 -20 -50 -74 -79 -87 -17 -7 -31 -15 -31 -19 0 -3 48 -19 108 -35
59 -16 127 -35 152 -42 94 -27 306 -87 335 -94 52 -14 388 -109 425 -119 19
-6 37 -7 41 -3 4 4 26 75 49 157 22 83 43 159 47 170 5 18 4 18 -18 4 -13 -9
-40 -21 -60 -28 -33 -11 -55 -7 -235 44 -110 30 -242 67 -294 81 -130 36 -131
37 -119 76 6 18 37 130 70 248 33 118 63 218 68 223 9 9 68 -36 177 -132 93
-83 193 -132 273 -132 34 0 71 6 88 15 31 16 94 80 113 116 17 32 51 133 46
137 -2 3 -19 -3 -36 -12 -25 -13 -52 -16 -114 -13 l-82 3 -123 83 c-116 79
-231 142 -259 142 -26 0 -22 31 18 176 57 205 55 199 72 202 9 2 114 -25 235
-58 378 -107 380 -107 408 -144 14 -18 25 -38 25 -44 0 -19 18 -14 24 6 44
149 86 303 86 314 0 8 -45 25 -128 47 -120 32 -233 63 -472 130 -58 17 -179
51 -270 76 -91 25 -171 48 -177 50 -7 2 -13 2 -13 -1z"/>
<path d="M26794 6038 c8 -93 11 -102 236 -723 82 -227 136 -378 204 -570 31
-88 63 -176 70 -195 8 -19 20 -50 27 -69 8 -22 29 -44 58 -62 57 -36 67 -37
41 -1 -12 16 -52 116 -91 223 -130 359 -214 594 -309 854 -148 407 -159 445
-160 533 0 48 -3 54 -32 72 -18 11 -37 20 -42 20 -5 0 -6 -36 -2 -82z"/>
<path d="M30570 6107 c0 -2 43 -104 95 -226 52 -123 95 -231 95 -240 0 -12
-99 -58 -363 -170 -199 -85 -386 -165 -415 -177 -29 -13 -80 -35 -115 -49 -34
-14 -71 -30 -82 -35 -11 -5 -62 -26 -113 -48 -71 -30 -90 -41 -80 -50 38 -31
62 -25 304 78 132 55 248 105 259 110 11 5 171 73 355 151 184 78 337 143 339
145 3 3 -22 70 -49 129 -5 11 -41 94 -79 185 -62 148 -73 167 -103 182 -32 17
-48 21 -48 15z"/>
<path d="M26666 6015 c-43 -23 -111 -55 -150 -71 -39 -15 -72 -29 -74 -29 -1
-1 13 -27 31 -58 19 -30 46 -91 62 -134 15 -43 52 -143 81 -223 29 -80 75
-208 103 -285 27 -77 80 -223 117 -325 212 -586 201 -549 185 -610 -7 -28 -11
-53 -8 -56 2 -3 54 13 113 35 60 21 142 51 183 65 111 40 111 40 64 69 -60 38
-46 7 -208 457 -36 102 -84 232 -105 290 -21 58 -62 170 -90 250 -29 80 -77
213 -107 295 -75 203 -89 250 -97 318 -4 31 -10 57 -14 56 -4 0 -42 -20 -86
-44z"/>
<path d="M14390 6026 c0 -49 22 -66 267 -212 686 -408 818 -483 829 -471 6 7
66 103 132 214 116 196 120 204 110 238 -6 19 -14 32 -18 30 -4 -3 -63 -97
-130 -210 l-122 -205 -31 19 c-40 24 -132 78 -172 101 -84 47 -804 476 -827
492 -31 22 -38 22 -38 4z"/>
<path d="M16663 5977 c-18 -37 -33 -70 -33 -72 0 -2 -15 -36 -34 -77 -18 -40
-63 -138 -99 -218 -35 -80 -74 -165 -85 -190 -11 -25 -34 -76 -51 -113 -33
-74 -38 -124 -16 -172 l13 -30 1 28 c1 24 49 138 161 382 176 382 181 395 178
464 l-3 66 -32 -68z"/>
<path d="M19297 5943 c-11 -23 -127 -444 -127 -463 0 -8 8 -28 19 -43 l18 -28
21 73 c11 40 37 132 57 203 56 195 57 205 44 237 -11 27 -24 36 -32 21z"/>
<path d="M29355 5884 c-20 -25 -36 -47 -34 -48 2 -2 19 -11 37 -20 32 -16 35
-16 53 0 10 9 21 25 24 35 6 19 -20 79 -34 79 -5 0 -25 -20 -46 -46z"/>
<path d="M19590 5867 c0 -2 7 -25 16 -51 21 -60 20 -61 -63 -437 -74 -340 -69
-329 -137 -294 -16 9 -31 13 -33 11 -8 -8 19 -91 43 -136 23 -41 24 -48 14
-95 -29 -127 -40 -177 -60 -265 -47 -212 -53 -237 -67 -282 -9 -30 -27 -59
-50 -78 -19 -17 -33 -33 -31 -36 6 -6 357 -84 379 -84 17 0 17 3 -3 46 -24 56
-26 46 46 364 31 135 56 252 56 261 0 35 23 37 120 13 153 -39 173 -71 264
-429 62 -248 68 -276 63 -308 -3 -18 -7 -41 -9 -51 -3 -17 10 -22 97 -42 55
-12 144 -32 198 -44 55 -12 101 -19 105 -16 3 3 -4 16 -15 29 -52 58 -75 120
-155 433 -104 410 -99 371 -52 379 232 35 393 228 396 477 1 127 -18 199 -78
295 -69 108 -180 157 -544 238 -63 14 -124 27 -135 30 -11 2 -72 16 -135 30
-63 14 -133 30 -155 35 -40 10 -75 13 -75 7z m384 -356 c316 -74 319 -74 359
-105 63 -48 80 -78 85 -146 5 -71 -15 -129 -61 -179 -75 -79 -138 -81 -452
-11 -55 12 -107 26 -116 31 -14 7 -11 30 28 206 24 109 46 204 48 211 6 16 12
15 109 -7z"/>
<path d="M19890 5486 c-5 -5 -10 -18 -10 -27 0 -16 -20 -106 -55 -255 -20 -79
-19 -81 10 -86 30 -6 33 -3 44 54 17 83 53 243 57 249 2 3 68 -9 146 -26 196
-45 228 -54 266 -75 37 -22 39 -19 15 21 -10 17 -39 40 -68 54 -66 32 -391
105 -405 91z"/>
<path d="M18476 5779 c-56 -196 -73 -265 -67 -271 13 -13 44 -12 51 2 5 8 21
60 35 115 40 146 31 138 122 110 43 -13 161 -46 263 -74 102 -29 200 -58 218
-66 36 -17 38 -15 18 24 -19 36 -38 51 -78 61 -18 4 -116 31 -218 60 -102 28
-207 58 -235 65 -27 7 -60 16 -72 20 -20 6 -23 1 -37 -46z"/>
<path d="M26062 5803 c3 -10 27 -94 52 -188 26 -93 51 -181 56 -195 5 -14 14
-43 19 -65 8 -29 20 -46 41 -59 17 -10 34 -16 37 -13 7 7 -126 478 -140 495
-6 7 -24 20 -40 29 -28 14 -30 14 -25 -4z"/>
<path d="M25910 5745 c-63 -18 -198 -56 -300 -85 -322 -90 -563 -158 -628
-176 -49 -13 -61 -20 -58 -33 3 -9 19 -65 36 -126 67 -238 61 -222 74 -201 6
11 25 35 41 53 26 30 49 39 180 77 83 24 154 40 158 36 7 -6 50 -150 97 -325
4 -16 31 -113 60 -215 28 -102 55 -198 60 -215 13 -50 87 -313 124 -443 36
-127 38 -158 10 -214 -18 -35 -18 -42 3 -34 9 4 98 29 198 57 99 27 186 52
194 54 8 3 -4 20 -36 49 -40 36 -52 56 -66 103 -9 32 -41 148 -72 258 -74 260
-155 552 -165 590 -17 66 -109 392 -115 406 -5 12 23 24 140 57 165 48 190 50
246 21 23 -11 42 -19 44 -17 5 5 -97 358 -104 357 -3 0 -58 -15 -121 -34z"/>
<path d="M21595 5506 c-190 -32 -346 -123 -445 -256 -169 -228 -230 -605 -150
-922 76 -294 272 -491 560 -560 130 -31 304 -23 422 19 110 38 212 97 306 174
l72 59 0 339 0 339 -42 17 c-55 23 -211 32 -275 16 -27 -7 -111 -42 -188 -79
-117 -56 -148 -66 -190 -65 -55 0 -118 23 -151 54 -12 11 -24 17 -27 12 -2 -4
0 -42 4 -83 22 -179 94 -260 231 -260 82 1 148 28 261 109 48 35 91 60 95 56
14 -14 5 -160 -13 -215 -61 -186 -244 -271 -457 -211 -238 65 -353 257 -351
586 1 274 88 466 251 553 190 101 462 44 536 -111 18 -39 21 -93 6 -131 -5
-14 -6 -26 -1 -26 10 0 300 116 307 123 6 6 -35 113 -69 177 -43 81 -82 125
-151 173 -98 69 -157 92 -280 112 -106 17 -164 17 -261 1z"/>
<path d="M20700 5472 c0 -7 6 -27 13 -45 32 -77 38 -223 12 -321 -49 -186
-205 -346 -368 -375 -28 -4 -42 -12 -41 -22 4 -36 167 -655 180 -680 24 -47
34 -42 19 8 -21 72 -155 601 -155 611 0 5 20 12 45 15 75 11 170 64 233 132
151 161 195 417 105 615 -21 46 -43 78 -43 62z"/>
<path d="M24130 5441 c-88 -53 -84 -48 -275 -416 -43 -82 -90 -172 -105 -200
-15 -27 -73 -139 -129 -247 l-101 -196 0 -272 c0 -291 -1 -286 56 -357 19 -23
34 -44 34 -47 0 -3 -118 -6 -262 -6 l-262 0 29 -30 29 -30 261 0 c144 0 265 3
268 7 4 3 -11 26 -33 50 -22 24 -45 55 -50 69 -6 14 -10 143 -10 292 0 223 3
272 16 297 8 17 44 84 78 150 35 66 107 206 161 310 54 105 101 195 105 200 4
6 31 57 60 115 82 161 113 204 181 245 32 20 61 40 63 44 3 4 -7 20 -22 34
l-28 26 -64 -38z"/>
<path d="M23110 5438 c-24 -57 -16 -87 69 -263 46 -93 103 -211 127 -262 24
-50 48 -95 54 -98 27 -17 1 53 -95 250 -58 119 -108 227 -111 240 -3 14 3 43
15 71 l21 47 -22 24 c-29 31 -40 29 -58 -9z"/>
<path d="M22550 5453 c0 -8 61 -61 88 -77 19 -12 14 1 -10 24 -35 33 -78 62
-78 53z"/>
<path d="M23843 5443 l-201 -3 9 -32 c4 -17 6 -43 3 -57 -8 -34 -286 -601
-294 -601 -4 0 -58 105 -120 233 -197 404 -184 372 -172 417 l10 40 -225 0
-225 0 57 -62 c50 -55 87 -123 291 -528 l234 -465 0 -270 c0 -267 0 -271 -25
-323 -14 -30 -25 -56 -25 -58 0 -2 88 -4 195 -4 179 0 217 5 185 25 -6 4 -19
24 -30 45 -19 36 -20 60 -20 314 l0 275 34 63 c18 35 70 135 116 223 45 88
102 196 125 240 23 44 73 139 110 210 102 197 131 247 163 282 26 27 32 48 13
41 -3 -2 -97 -4 -208 -5z"/>
<path d="M25875 5396 c-60 -17 -115 -34 -122 -39 -8 -5 -8 -19 2 -55 7 -26 43
-155 80 -287 37 -132 87 -310 110 -395 150 -542 154 -552 182 -582 32 -33 93
-72 93 -58 0 5 -6 13 -14 17 -21 13 -37 49 -66 157 -16 56 -51 184 -80 286
-29 102 -56 199 -60 215 -13 47 -76 272 -131 464 -27 96 -49 180 -49 186 0 10
236 79 273 79 27 0 20 11 -18 29 -47 22 -70 20 -200 -17z"/>
<path d="M28125 5369 c-33 -11 -63 -24 -67 -28 -9 -8 -4 -26 55 -191 25 -69
64 -179 87 -245 47 -134 49 -137 104 -177 44 -32 67 -37 42 -9 -16 18 -57 115
-96 231 -28 80 -76 217 -100 280 -11 30 -20 60 -20 65 0 13 125 55 163 55 37
0 34 16 -4 29 -47 16 -96 13 -164 -10z"/>
<path d="M19038 5294 c-38 -199 -138 -314 -275 -314 -102 0 -188 44 -336 173
-48 43 -91 77 -95 77 -9 0 -21 -38 -78 -245 -19 -71 -40 -143 -45 -160 -8 -24
-6 -32 8 -42 9 -7 22 -13 28 -13 6 0 32 78 58 173 26 94 52 183 58 195 l9 24
48 -42 c199 -174 265 -210 386 -210 63 0 78 4 119 30 82 52 138 154 160 291
11 69 7 102 -15 132 -12 16 -16 8 -30 -69z"/>
<path d="M22274 5300 c59 -92 128 -263 111 -278 -6 -4 -100 -44 -210 -87 -110
-43 -202 -80 -204 -82 -3 -2 8 -17 25 -32 l29 -29 195 78 c107 43 203 81 213
83 24 7 21 34 -14 121 -42 104 -72 156 -120 208 -23 23 -34 32 -25 18z"/>
<path d="M17905 5288 c-22 -6 -41 -12 -43 -13 -2 -2 4 -17 13 -34 27 -53 89
-36 101 27 7 36 1 38 -71 20z"/>
<path d="M15840 5273 c0 -20 41 -72 61 -78 13 -4 131 -56 262 -116 132 -60
243 -107 246 -103 3 3 -3 21 -14 40 -18 32 -41 45 -245 135 -124 55 -238 106
-254 114 -32 16 -56 19 -56 8z"/>
<path d="M25354 5250 c-12 -5 -68 -21 -125 -35 -120 -32 -145 -51 -177 -136
-35 -95 -35 -92 -1 -111 17 -10 34 -18 38 -18 5 0 20 33 35 74 15 40 37 83 49
94 21 20 176 72 212 72 21 0 29 24 15 49 -12 23 -15 24 -46 11z"/>
<path d="M21610 5196 c-82 -24 -122 -47 -174 -99 -102 -103 -147 -249 -147
-470 0 -192 25 -290 103 -404 38 -56 53 -55 22 1 -47 83 -67 187 -67 346 0
166 21 271 76 373 33 62 103 133 164 164 100 52 255 57 356 10 81 -37 58 -4
-34 50 -73 42 -208 55 -299 29z"/>
<path d="M29270 4981 c-41 -16 -113 -42 -160 -59 -47 -17 -130 -46 -184 -66
-54 -20 -105 -36 -113 -36 -24 0 -13 -25 18 -39 28 -12 45 -8 292 78 144 51
275 98 292 105 l30 13 -32 17 c-42 21 -54 20 -143 -13z"/>
<path d="M31985 4936 c-21 -14 -314 -183 -400 -231 -27 -15 -77 -42 -110 -60
-224 -125 -740 -385 -995 -502 -236 -108 -268 -123 -274 -123 -2 0 -37 -15
-78 -34 -40 -18 -102 -46 -138 -60 -36 -15 -74 -31 -85 -36 -74 -34 -321 -132
-560 -222 -1043 -393 -2177 -695 -3255 -867 -627 -100 -1117 -154 -1815 -198
-341 -21 -1394 -24 -1695 -5 -403 26 -489 33 -650 47 -422 37 -941 99 -1210
145 -30 5 -100 17 -155 25 -565 93 -1285 254 -1820 409 -368 106 -436 127
-750 231 -351 117 -858 305 -1080 400 -16 7 -122 52 -235 100 -113 48 -234
101 -270 117 -36 17 -90 41 -120 55 -181 80 -708 340 -940 464 -128 68 -410
226 -537 300 -46 27 -83 44 -83 39 0 -6 4 -10 8 -10 5 0 18 -8 30 -17 11 -10
49 -36 84 -58 34 -22 95 -59 133 -84 128 -80 499 -303 590 -353 50 -28 110
-62 135 -76 226 -126 369 -200 685 -357 289 -142 623 -298 775 -359 36 -15 74
-31 85 -36 70 -33 489 -195 700 -271 263 -95 300 -108 460 -159 88 -29 179
-58 202 -66 152 -49 682 -196 879 -244 337 -81 379 -91 564 -129 478 -99 883
-165 1385 -225 203 -25 225 -27 420 -45 233 -22 189 -19 725 -53 123 -8 417
-12 795 -12 498 1 655 5 925 22 302 20 627 46 710 56 19 3 62 7 95 11 373 36
966 128 1450 224 304 60 844 189 1093 260 39 12 105 30 145 42 616 174 1337
435 1957 708 538 238 1127 543 1625 843 346 209 653 408 629 408 -5 0 -18 -6
-29 -14z"/>
<path d="M19722 4738 c-13 -58 -55 -249 -77 -343 -39 -169 -39 -169 -20 -219
21 -54 35 -59 35 -13 0 18 11 82 25 142 14 61 39 175 56 255 17 80 35 149 39
153 9 10 137 -21 168 -41 32 -21 27 -1 -10 42 -27 31 -46 40 -108 56 -41 11
-80 20 -86 20 -6 0 -16 -24 -22 -52z"/>
<path d="M18942 4683 c-5 -21 -34 -123 -63 -228 -29 -104 -54 -192 -55 -193
-4 -6 -75 12 -294 73 -113 31 -218 61 -235 65 -70 19 -468 130 -557 156 -54
15 -101 24 -105 21 -4 -4 2 -20 14 -35 16 -21 41 -33 119 -55 54 -15 131 -37
169 -48 83 -24 133 -38 280 -78 117 -33 139 -39 449 -126 109 -31 199 -55 201
-53 1 2 14 48 29 103 16 55 45 162 67 239 36 129 37 140 23 167 -19 38 -29 37
-42 -8z"/>
<path d="M22390 4363 l0 -350 -57 -50 c-118 -102 -208 -155 -353 -208 -64 -24
-95 -28 -210 -33 -117 -4 -147 -1 -220 17 -85 22 -191 68 -267 116 -61 37 -53
24 16 -29 138 -107 316 -166 495 -166 216 0 408 78 599 243 l57 50 0 352 0
351 -30 29 -30 29 0 -351z"/>
<path d="M28370 4661 c-8 -4 -127 -48 -265 -96 -137 -48 -254 -91 -259 -96 -5
-4 7 -15 26 -25 35 -16 38 -16 104 9 38 13 107 38 154 55 121 42 257 90 315
111 l50 18 -32 17 c-35 17 -69 20 -93 7z"/>
<path d="M22019 4412 c-68 -53 -150 -101 -196 -116 -67 -22 -161 -23 -203 -1
-46 24 -47 12 -3 -22 86 -68 203 -71 328 -9 88 43 115 74 115 127 0 44 -7 47
-41 21z"/>
<path d="M27465 4350 c-27 -10 -126 -46 -220 -80 -93 -34 -184 -67 -200 -74
-17 -7 -45 -17 -62 -20 -46 -10 -49 -22 -11 -42 37 -19 -4 -31 368 103 129 47
238 87 243 90 6 4 -56 45 -65 42 -2 0 -25 -9 -53 -19z"/>
<path d="M19135 4156 c19 -25 37 -36 73 -44 72 -15 329 -72 397 -88 136 -32
144 -31 105 19 -11 14 -35 28 -53 32 -77 16 -359 77 -438 95 -113 26 -114 26
-84 -14z"/>
<path d="M20080 3947 c19 -33 20 -33 257 -86 131 -29 261 -59 288 -66 28 -7
52 -11 53 -10 7 7 -32 64 -47 70 -9 3 -79 20 -156 37 -77 16 -198 43 -270 59
-71 16 -133 29 -137 29 -4 0 1 -15 12 -33z"/>
<path d="M26235 3945 c-5 -2 -118 -34 -250 -70 -132 -37 -257 -71 -277 -77
-41 -12 -41 -21 1 -43 27 -13 41 -11 217 39 104 29 237 66 297 82 59 15 107
32 107 36 0 19 -68 42 -95 33z"/>
<path d="M21340 1238 l0 -268 50 0 c43 0 50 3 50 20 0 11 3 20 6 20 3 0 17 -9
31 -20 28 -22 110 -28 144 -10 37 21 52 69 53 170 0 110 -18 164 -59 180 -39
15 -108 12 -131 -5 -10 -8 -22 -15 -26 -15 -5 0 -8 42 -8 94 l0 94 -55 4 -55
3 0 -267z m201 2 c16 -9 19 -22 19 -83 0 -80 -9 -97 -51 -97 -45 0 -59 23 -59
95 0 86 32 116 91 85z"/>
<path d="M22334 1501 c-2 -2 -4 -24 -4 -48 l0 -44 58 3 57 3 3 42 3 41 -56 4
c-31 1 -59 1 -61 -1z"/>
<path d="M25201 1500 l-44 -5 -51 -140 c-109 -296 -146 -400 -146 -413 0 -8
15 -12 44 -12 42 0 44 1 59 43 8 23 54 147 101 276 48 129 86 239 84 245 -2 7
-20 9 -47 6z"/>
<path d="M27853 1493 c-2 -6 -3 -26 -1 -45 3 -33 3 -33 61 -36 l57 -3 0 45 0
44 -56 4 c-37 2 -58 -1 -61 -9z"/>
<path d="M17850 1455 l0 -45 55 0 55 0 0 45 0 45 -55 0 -55 0 0 -45z"/>
<path d="M19603 1413 c-137 -376 -173 -475 -173 -479 0 -3 21 -4 47 -2 l47 3
23 59 c12 32 31 84 42 115 11 31 47 130 80 221 34 90 61 166 61 167 0 2 -21 3
-48 3 l-48 0 -31 -87z"/>
<path d="M25839 1458 c-57 -15 -80 -46 -86 -116 -6 -69 9 -127 40 -146 12 -8
57 -19 100 -24 88 -12 107 -23 107 -62 0 -40 -39 -53 -147 -48 l-88 3 -3 -41
c-3 -39 -1 -42 29 -48 65 -13 239 -7 270 10 40 20 59 68 59 149 0 57 -3 69
-28 96 -24 27 -36 32 -112 40 -86 11 -110 23 -110 59 0 33 22 40 128 40 l103
0 -3 42 c-3 41 -4 43 -43 50 -56 10 -173 8 -216 -4z"/>
<path d="M17250 1410 l0 -50 70 0 70 0 0 -195 0 -196 58 3 57 3 3 193 2 192
65 0 65 0 0 50 0 50 -195 0 -195 0 0 -50z"/>
<path d="M20247 1218 l3 -243 155 -3 155 -3 0 50 0 50 -92 3 -93 3 -3 193 -2
192 -63 0 -62 0 2 -242z"/>
<path d="M24300 1391 c0 -49 -1 -50 -32 -53 -31 -3 -33 -6 -36 -45 l-3 -43 35
0 35 0 3 -137 3 -138 53 -3 52 -3 0 140 0 140 38 3 c36 3 37 4 37 43 0 39 -1
40 -37 43 l-38 3 0 50 0 49 -55 0 -55 0 0 -49z"/>
<path d="M17850 1155 l0 -185 55 0 55 0 0 185 0 185 -55 0 -55 0 0 -185z"/>
<path d="M18190 1155 l0 -185 55 0 55 0 0 90 c0 123 14 156 74 172 l46 12 0
48 c0 47 -1 48 -30 48 -20 0 -40 -9 -56 -25 -14 -14 -26 -25 -28 -25 -2 0 -7
11 -10 25 -6 22 -11 25 -56 25 l-50 0 0 -185z"/>
<path d="M18684 1334 c-12 -3 -32 -16 -45 -30 -22 -23 -24 -36 -27 -132 -4
-123 5 -154 50 -182 29 -18 47 -20 143 -18 l110 3 3 40 3 40 -91 0 c-94 0
-109 7 -110 47 0 15 14 18 108 20 105 3 107 3 110 27 7 50 -9 131 -32 158 -21
25 -30 27 -112 29 -49 1 -99 0 -110 -2z m136 -88 c6 -8 10 -25 8 -38 -3 -21
-8 -23 -53 -23 -45 0 -50 2 -53 23 -5 33 15 52 53 52 18 0 38 -7 45 -14z"/>
<path d="M20774 1326 c-3 -8 -4 -80 -2 -161 3 -147 3 -147 31 -171 40 -34 127
-34 162 0 24 24 24 24 27 2 3 -19 9 -21 58 -21 l55 0 3 160 c4 211 5 207 -61
203 l-52 -3 -5 -127 c-3 -74 -10 -132 -16 -138 -6 -6 -27 -10 -45 -8 l-34 3
-5 135 -5 135 -53 3 c-39 2 -54 -1 -58 -12z"/>
<path d="M21890 1331 c0 -6 -1 -89 -1 -183 l0 -173 55 -3 56 -3 0 104 c0 120
11 143 75 161 21 6 37 14 36 19 0 4 -1 25 -1 47 0 36 -3 40 -24 40 -14 0 -38
-11 -54 -25 -37 -31 -40 -31 -44 -2 -3 19 -10 22 -50 25 -29 2 -48 -1 -48 -7z"/>
<path d="M22337 1334 c-4 -4 -7 -88 -7 -186 l0 -179 58 3 57 3 0 180 0 180
-50 3 c-28 2 -54 0 -58 -4z"/>
<path d="M22723 1324 c-45 -23 -63 -67 -63 -161 0 -164 29 -195 175 -191 l90
3 0 40 0 40 -63 0 c-76 0 -82 7 -82 97 0 96 1 98 75 98 l63 0 4 35 c2 19 -1
40 -6 45 -16 16 -157 12 -193 -6z"/>
<path d="M23167 1333 c-14 -4 -17 -13 -15 -41 l3 -37 92 -3 c89 -3 91 -3 97
-29 4 -14 5 -27 2 -30 -2 -2 -41 -5 -86 -6 -76 -2 -83 -4 -106 -30 -39 -46
-31 -139 15 -174 26 -20 119 -16 151 7 28 20 28 20 33 0 4 -17 14 -20 56 -20
l51 0 0 145 c0 165 -9 196 -61 214 -31 11 -195 14 -232 4z m176 -237 c-3 -36
-18 -47 -63 -44 -30 3 -35 7 -38 32 -4 36 12 47 63 44 37 -3 40 -5 38 -32z"/>
<path d="M23700 1155 l0 -185 55 0 55 0 0 124 c0 134 8 156 53 156 48 0 52
-11 55 -150 l4 -131 51 3 52 3 0 158 0 159 -29 25 c-26 22 -37 25 -87 21 -38
-3 -65 -11 -79 -23 -21 -19 -21 -19 -27 3 -5 19 -12 22 -54 22 l-49 0 0 -185z"/>
<path d="M26404 1324 c-49 -24 -59 -54 -59 -173 0 -160 22 -181 191 -181 118
0 124 3 124 50 l0 38 -72 -5 c-89 -6 -128 6 -128 41 0 25 1 25 103 28 l102 3
3 70 c4 82 -9 112 -55 132 -44 18 -170 17 -209 -3z m156 -89 c16 -42 3 -55
-51 -55 l-49 0 0 34 c0 37 8 44 58 45 26 1 34 -4 42 -24z"/>
<path d="M26890 1155 l0 -186 55 3 56 3 2 100 c3 120 12 141 72 157 l45 12 0
48 c0 47 -1 48 -30 48 -20 0 -40 -9 -56 -25 -14 -14 -26 -25 -28 -25 -2 0 -7
11 -10 25 -6 22 -11 25 -56 25 l-50 0 0 -185z"/>
<path d="M27290 1328 c0 -15 97 -335 106 -349 8 -14 140 -11 151 4 5 6 20 48
32 92 13 44 34 114 47 155 34 107 34 110 -26 110 -60 0 -58 2 -95 -148 -15
-62 -31 -110 -35 -105 -4 4 -19 58 -35 118 -15 61 -32 116 -38 123 -5 6 -31
12 -58 12 -33 0 -49 -4 -49 -12z"/>
<path d="M27855 1328 c-3 -8 -4 -90 -3 -183 l3 -170 55 0 55 0 0 180 0 180
-53 3 c-37 2 -54 -1 -57 -10z"/>
<path d="M28262 1325 c-46 -20 -62 -65 -62 -175 0 -148 30 -180 168 -180 88 0
106 10 100 57 -3 27 -5 28 -65 28 -34 0 -67 5 -74 12 -17 17 -23 105 -9 147
l12 36 64 0 65 0 -3 43 -3 42 -80 2 c-53 2 -91 -2 -113 -12z"/>
<path d="M28722 1326 c-47 -22 -62 -66 -61 -173 1 -113 7 -133 49 -161 31 -21
43 -22 144 -20 l111 3 3 42 3 42 -73 -5 c-82 -6 -121 8 -126 43 -3 22 0 22
105 25 l108 3 -1 78 c0 70 -2 80 -27 104 -24 24 -35 27 -114 30 -63 2 -98 -1
-121 -11z m148 -80 c6 -8 10 -25 8 -38 -3 -20 -10 -23 -51 -26 -54 -4 -68 12
-49 54 9 18 19 24 46 24 18 0 39 -7 46 -14z"/>
<path d="M29248 1322 c-35 -21 -51 -67 -42 -122 10 -62 30 -77 114 -86 75 -7
94 -21 69 -50 -10 -12 -30 -15 -93 -12 l-81 3 -3 -34 c-2 -20 2 -37 10 -42 7
-5 59 -9 115 -9 98 0 104 1 132 28 19 17 31 38 32 57 5 108 -10 130 -98 140
-81 9 -93 14 -93 35 0 26 31 33 105 25 l63 -6 4 36 c6 48 -9 55 -119 55 -65 0
-95 -5 -115 -18z"/>
</g>
</svg>
