<?xml version="1.0" standalone="no"?>
<!DOCTYPE svg PUBLIC "-//W3C//DTD SVG 20010904//EN"
 "http://www.w3.org/TR/2001/REC-SVG-20010904/DTD/svg10.dtd">
<svg version="1.0" xmlns="http://www.w3.org/2000/svg"
 width="5648.000000pt" height="2076.000000pt" viewBox="0 0 5648.000000 2076.000000"
 preserveAspectRatio="xMidYMid meet">

<g transform="translate(0.000000,2076.000000) scale(0.100000,-0.100000)"
fill="#000000" stroke="none">
<path d="M19484 18593 c-13 -284 -8 -881 10 -1153 71 -1070 293 -2063 682
-3055 311 -791 778 -1570 1317 -2196 463 -538 1023 -1007 1577 -1321 109 -62
333 -179 336 -176 2 2 -40 30 -94 62 -313 189 -708 479 -947 696 -274 250
-380 357 -606 615 -732 834 -1308 1925 -1653 3125 -304 1062 -433 2196 -381
3350 3 58 8 133 11 168 l6 62 -125 0 -125 0 -8 -177z"/>
<path d="M24033 18723 c45 -64 83 -146 104 -230 15 -56 18 -113 18 -318 -1
-353 -22 -508 -90 -650 -64 -134 -183 -217 -367 -256 -190 -39 -603 -47 -983
-19 -369 28 -603 51 -883 86 l-53 7 3 -119 3 -119 105 -7 c58 -3 197 -11 310
-18 436 -24 800 -63 939 -101 102 -27 222 -92 292 -157 151 -140 160 -316 26
-505 -74 -105 -161 -237 -239 -362 -186 -299 -530 -907 -597 -1053 -53 -116
-111 -273 -111 -301 0 -9 20 -37 45 -61 l44 -43 19 44 c96 221 252 533 380
759 230 406 475 734 703 940 52 47 111 100 131 119 93 84 228 184 302 223 74
39 87 43 156 43 67 0 81 -4 135 -34 65 -38 188 -156 278 -267 123 -153 162
-275 155 -477 -11 -291 -145 -578 -441 -951 -263 -329 -581 -781 -774 -1097
-88 -144 -110 -187 -185 -363 l-59 -140 22 -30 c13 -17 37 -50 53 -73 17 -23
33 -42 36 -43 3 0 36 62 74 138 145 292 350 616 529 839 168 210 475 515 603
600 59 39 129 62 162 54 37 -10 80 -58 100 -114 30 -79 50 -221 62 -437 40
-730 163 -1674 260 -1991 l20 -66 72 -33 c74 -33 194 -67 204 -58 2 3 -14 35
-37 72 -143 229 -263 686 -309 1186 -29 317 -29 955 0 1255 55 566 197 871
447 965 30 11 103 26 161 32 300 33 514 -71 603 -293 63 -157 73 -285 54 -639
-9 -159 -15 -454 -15 -737 0 -641 20 -1091 66 -1463 27 -223 50 -333 88 -416
l24 -53 116 -3 c64 -2 116 -2 116 0 0 2 -17 29 -39 60 -117 174 -184 369 -197
581 -9 145 32 941 71 1391 2 30 7 91 10 135 14 183 48 433 65 481 53 152 148
207 263 151 82 -41 124 -83 332 -331 411 -492 804 -896 1115 -1144 36 -29 70
-52 76 -52 12 0 116 154 118 175 0 6 -55 54 -124 105 -542 404 -986 836 -1272
1237 -290 406 -378 858 -247 1278 40 132 138 299 203 348 45 35 201 106 271
124 139 36 276 -15 452 -167 94 -82 190 -195 464 -545 142 -181 344 -440 450
-575 106 -135 248 -316 315 -402 68 -87 125 -154 128 -149 3 4 19 43 35 85
l30 77 -123 147 c-399 480 -699 888 -814 1109 -50 97 -124 285 -146 377 -66
263 33 352 501 447 195 40 771 146 1017 187 112 19 110 17 119 121 l5 63 -41
-6 c-23 -3 -150 -15 -282 -26 -132 -11 -256 -22 -275 -25 -139 -17 -634 -45
-795 -45 -425 0 -643 115 -717 379 -10 36 -28 163 -39 281 -42 432 -4 717 117
875 l26 35 -196 0 c-219 0 -205 6 -186 -75 10 -42 24 -150 37 -275 11 -114 8
-460 -6 -590 -75 -740 -390 -1380 -850 -1725 -115 -87 -319 -188 -446 -221
-192 -50 -449 -43 -635 16 -187 60 -411 203 -567 361 -554 564 -799 1513 -637
2472 l7 37 -253 0 -252 0 35 -47z"/>
<path d="M30324 18523 c7 -281 -7 -779 -29 -1051 -113 -1341 -457 -2555 -1021
-3597 -444 -822 -1016 -1501 -1691 -2006 -206 -155 -387 -267 -619 -382 -437
-219 -885 -345 -1384 -391 -25 -2 36 -2 135 0 670 15 1412 287 2069 759 236
169 411 319 647 554 381 382 658 745 971 1276 469 795 837 1810 1003 2770 14
83 28 157 30 165 17 58 80 594 101 855 18 228 31 999 19 1178 l-7 117 -116 0
-115 0 7 -247z"/>
</g>
</svg>
